<svg xmlns="http://www.w3.org/2000/svg" width="400" height="438.554" >
  <g fill-rule="evenodd">
    <path d="M209.796 134.404c-1.531 1.692-.236 2.703 3.533 2.758 3.015.044 5.084.438 6.766 1.287.382.193.886.351 1.122.351 2.958 0 10.152 8.439 11.297 13.251 1.164 4.899 1.486 6.986 1.486 9.649 0 3.623.863 5.122 2.458 4.269.892-.477.813-9.136-.098-10.843-.198-.37-.36-1.127-.36-1.681s-.202-1.511-.45-2.126a84.343 84.343 0 0 1-.743-1.919c-3.054-8.329-9.134-13.534-17.807-15.246-4.08-.806-6.319-.728-7.204.25m-.916 6.876c-1.514 1.514-.281 2.541 3.476 2.898 8.592.817 13.787 6.726 14.614 16.622.394 4.713.546 5.2 1.624 5.2 1.747 0 1.991-.858 1.455-5.123-1.427-11.371-5.742-17.278-14.237-19.491-2.724-.709-6.274-.764-6.932-.106m-.754 7.42a9.911 9.911 0 0 1-.402.985c-.436.814 1.557 1.915 3.464 1.915 5.328 0 8.589 4.399 9.31 12.56.129 1.463 1.178 2.207 2.068 1.468 1.034-.858.651-6.433-.613-8.923-.194-.382-.357-.922-.363-1.2-.078-3.983-12.275-10.148-13.464-6.805m.179 5.983c.497.096 1.217.092 1.6-.008.382-.1-.025-.179-.905-.174-.88.004-1.193.086-.695.182m-5.205.806c.715.089 1.885.089 2.6 0 .715-.088.13-.161-1.3-.161-1.43 0-2.015.073-1.3.161m7.871 0c1.197.306 2.152 1.723 2.636 3.911.817 3.693.36 84.896-.487 86.441-.978 1.786-2.305 2.496-4.973 2.662l-2.347.146 2.7.075c1.584.045 2.7-.089 2.7-.324 0-.22.36-.4.8-.4.44 0 1.52-.72 2.4-1.6l1.6-1.6-.013-43.1c-.013-40.137-.061-43.156-.7-43.909-1.16-1.365-3.162-2.593-4.149-2.545-.784.039-.812.079-.167.243m-13.471.8c.715.089 1.885.089 2.6 0 .715-.088.13-.161-1.3-.161-1.43 0-2.015.073-1.3.161m-5.6.8c.715.089 1.885.089 2.6 0 .715-.088.13-.161-1.3-.161-1.43 0-2.015.073-1.3.161m-5.593.801c.719.089 1.799.087 2.4-.004s.013-.164-1.307-.162c-1.32.002-1.812.077-1.093.166m-5.807.797a8.899 8.899 0 0 0 2.2 0c.605-.092.11-.167-1.1-.167-1.21 0-1.705.075-1.1.167m-5.195.8c.609.092 1.509.09 2-.005.492-.095-.005-.171-1.105-.168-1.1.003-1.503.081-.895.173m-4.713 42.113c0 20.35.048 28.675.108 18.5.059-10.175.059-26.825 0-37-.06-10.175-.108-1.85-.108 18.5m38.895-35.753c-.136.135-2.191.413-4.567.618-2.376.204-5.85.535-7.72.735-1.87.2-5.38.56-7.8.8s-5.93.599-7.8.799c-1.87.199-4.615.485-6.1.636l-2.7.275v63.761l3.3.455c3.477.479 5.49.714 11.2 1.309 3.342.349 5.484.579 14.5 1.563 2.2.24 5.215.539 6.7.664l2.7.228v-36.045c0-38.443.043-37.554-1.713-35.798M178.9 244.676c.385.1 1.015.1 1.4 0 .385-.101.07-.183-.7-.183s-1.085.082-.7.183m5.8.806a5.661 5.661 0 0 0 1.8 0c.495-.095.09-.173-.9-.173s-1.395.078-.9.173m5.805.805c.609.092 1.509.09 2-.005.492-.095-.005-.171-1.105-.168-1.1.003-1.503.081-.895.173m5.195.8a8.899 8.899 0 0 0 2.2 0c.605-.092.11-.167-1.1-.167-1.21 0-1.705.075-1.1.167m5.6.8a8.899 8.899 0 0 0 2.2 0c.605-.092.11-.167-1.1-.167-1.21 0-1.705.075-1.1.167m-117.433 33.98c-.388.388-.316 24.236.075 24.853.231.365 1.153.484 3.094.4L89.8 307l.11-6.93c.129-8.174.223-8.261 3.09-2.847 3.064 5.786 4.312 5.715 7.445-.423 2.126-4.164 1.925-3.894 2.371-3.188.204.323.375 3.521.378 7.106l.006 6.517 2.9-.117L109 307l.106-12.7.105-12.7h-6.001l-.939 1.5c-.517.825-1.896 3.345-3.065 5.6-2.866 5.529-2.329 5.741-6.575-2.6l-2.29-4.5h-3.104c-1.707 0-3.224.12-3.37.267M116 292.545v10.946l1.983 1.854 1.983 1.855H137.2V302l-7.1-.006c-8.301-.007-8.186.033-8.023-2.832L122.2 297l6.719-.11 6.719-.11-.119-2.49-.119-2.49-6.72-.11-6.719-.11.119-2.29.12-2.29 7.5-.109 7.5-.109V281.6H116v10.945m27.2-9.507c0 1.22 1.039 3.374 2.007 4.162.135.11.852 1.1 1.593 2.2s1.455 2.09 1.588 2.2c.132.11.62.734 1.085 1.388l.845 1.187-1.233 1.813c-.678.996-1.334 1.902-1.459 2.012-.124.11-1.028 1.37-2.009 2.8-.981 1.43-1.926 2.66-2.1 2.733-.174.074-.317.929-.317 1.9v1.767h2.604c2.975 0 2.669.241 6.089-4.8 1.269-1.87 2.487-3.4 2.707-3.4.22 0 1.438 1.53 2.707 3.4 3.42 5.041 3.114 4.8 6.089 4.8H166v-1.438c0-1.484-.235-1.903-3.786-6.762-3.942-5.393-4.228-3.818 2.254-12.437 1.133-1.507 1.532-2.422 1.532-3.517v-1.481l-2.9.117-2.9.118-2.6 3.885c-3.02 4.514-2.833 4.482-5.317.888-3.657-5.288-3.255-4.973-6.343-4.973h-2.74v1.438M172 294.4v12.8h6l.006-6.5c.008-8.857.19-9.022 3.201-2.9 1.586 3.225 1.75 3.386 3.469 3.394 1.203.006 1.399-.218 3.4-3.864 3.02-5.503 3.085-5.447 3.214 2.74l.11 6.93h5.6l.106-12.716.105-12.717-3.224.117-3.225.116-2.615 5c-3.923 7.5-3.365 7.452-6.951.6-3.263-6.237-2.793-5.8-6.245-5.8H172v12.8m34.193-11.541c-2.502 2.198-2.593 2.609-2.593 11.745v8.244l2.058 2.176 2.058 2.176h14.568l2.058-2.176 2.058-2.176v-17.167l-1.998-2.04-1.998-2.041h-14.776l-1.435 1.259m26.474-.992c-.512.512-.308 24.332.213 24.853.345.345 3.026.48 9.536.48h9.057l1.863-1.76 1.864-1.761v-3.443c0-3.287-.055-3.501-1.21-4.71l-1.211-1.266 1.211-1.249c1.152-1.189 1.21-1.41 1.21-4.615v-3.366l-1.683-1.715-1.684-1.715h-9.45c-5.197 0-9.57.12-9.716.267m28.613 2.004c.108 2.076.216 2.319 1.12 2.53l1 .234.109 7.331c.114 7.621-.036 8.434-1.558 8.434-.652 0-.751.319-.751 2.412v2.412l5.1-.112 5.1-.112.121-2.102c.111-1.936.04-2.132-.9-2.49l-1.021-.388v-7.648c0-7.324.034-7.656.804-7.857.922-.241 1.312-1.406 1.125-3.36l-.129-1.355-5.12-.112-5.121-.112.121 2.295m16.203-2.02c-.156.155-.283 4.983-.283 10.729v10.447l2.121 2.095 2.122 2.095 7.978-.108L297.4 307l.119-2.5.119-2.5-6.519-.006c-3.585-.003-6.741-.147-7.012-.319-.363-.231-.521-2.881-.6-10.094l-.107-9.781-2.817-.116c-1.55-.064-2.945.011-3.1.167m25.584.016c-.147.146-.267 5.012-.267 10.812v10.545l1.944 1.996 1.944 1.996 8.756-.108L324.2 307l.119-2.491.119-2.491-7.519-.109-7.519-.109V297l6.519-.11 6.519-.11-.119-2.49-.119-2.49-6.5-.11-6.5-.11v-4.762l7.5-.109 7.5-.109.119-2.5.119-2.5h-10.552c-5.804 0-10.673.12-10.819.267m-83.31 5.566c.477 1.242.269 13.581-.237 14.087-.788.788-8.968.653-9.277-.153-.331-.863-.31-13.967.024-14.3.622-.623 9.238-.291 9.49.366m29.363 1.879.121 2.312-5.121-.112-5.12-.112-.129-1.355c-.31-3.243-.244-3.283 5.24-3.157L249 287l.12 2.312M249 299.4v2.4l-4.595.114c-5.263.131-5.605-.05-5.605-2.957 0-2.118.013-2.122 5.6-2.032l4.6.075v2.4" fill="#f8f8f9"/>
    <path d="M202.8 6.647c0 .546-.404.62-2.6.481-1.949-.124-2.6-.036-2.6.353 0 .285-.439.519-.976.519-.537 0-1.088.18-1.224.4-.136.22-.597.4-1.024.4-.427 0-.776.18-.776.4 0 .22-.36.4-.8.4-.44 0-.8.18-.8.4 0 .22-.341.4-.757.4-.417 0-.871.296-1.01.657-.138.362-.362.547-.497.412-.135-.135-.744.109-1.353.543-.608.433-1.284.788-1.502.788-.217 0-.503.281-.635.625s-.415.518-.629.386c-.213-.132-.754.126-1.202.574-.448.448-1.085.815-1.415.815-.33 0-.6.18-.6.4 0 .22-.341.4-.757.4-.417 0-.865.281-.997.625s-.415.518-.629.386c-.213-.132-.754.126-1.202.574-.448.448-1.085.815-1.415.815-.33 0-.6.18-.6.4 0 .22-.341.4-.757.4-.417 0-.869.29-1.005.645-.2.522-.361.551-.843.151-.48-.399-.595-.382-.595.087 0 .32-.495.837-1.1 1.149-.605.312-1.25.802-1.432 1.09-.257.404-.461.416-.9.051-.453-.375-.568-.332-.568.213 0 .392-.511.877-1.2 1.136-.66.25-1.2.594-1.2.766 0 .171-.341.312-.757.312-.417 0-.865.281-.997.625s-.415.518-.629.386c-.213-.132-.754.126-1.202.574-.448.448-1.066.815-1.372.815-.307 0-.665.281-.797.625s-.434.506-.67.36c-.236-.146-.684.068-.995.475-.492.643-.618.662-.967.14-.344-.513-.403-.498-.408.109-.003.389-.501.926-1.106 1.191-.605.266-1.246.716-1.425 1-.178.284-.505.405-.726.268-.221-.136-.672.085-1.001.492-.46.569-.649.616-.818.204-.154-.374-.361-.255-.685.397-.256.512-.816 1-1.245 1.082-.429.083-.995.444-1.257.803-.263.359-.597.533-.744.387-.146-.147-.611.079-1.032.5-.422.422-1.037.767-1.367.767-.33 0-.6.18-.6.4 0 .22-.341.4-.757.4-.417 0-.868.289-1.004.642-.14.366-.502.543-.842.412-.329-.126-.597-.051-.597.167s-.495.614-1.1.879c-.605.266-1.246.716-1.425 1-.178.284-.505.405-.726.268-.221-.136-.657.085-.968.492-.492.643-.618.662-.967.14-.344-.513-.403-.498-.408.109-.003.389-.501.927-1.106 1.195-.605.267-1.298.741-1.539 1.052-.242.312-.628.45-.858.307-.231-.142-.53.029-.664.381-.14.364-.502.541-.842.41-.329-.126-.597-.051-.597.167s-.495.615-1.1.883c-.605.267-1.31.758-1.567 1.09-.257.333-.587.485-.734.339-.146-.147-.611.079-1.032.5-.422.422-1.018.767-1.324.767-.307 0-.66.267-.785.593-.125.327-.481.496-.791.377-.31-.119-.679.083-.819.449-.147.384-.506.568-.851.435-.329-.126-.597-.045-.597.179 0 .224-.63.671-1.4.993-.77.322-1.4.782-1.4 1.022 0 .241-.255.34-.567.22-.312-.12-.673.06-.803.399a.642.642 0 0 1-.833.387c-.329-.126-.597-.051-.597.167s-.495.615-1.1.883c-.605.267-1.298.741-1.539 1.052-.242.312-.628.45-.858.307-.231-.142-.522.011-.649.339-.126.329-.432.598-.68.598-.248 0-.973.372-1.612.827-.639.455-1.162.691-1.162.524 0-.167-.243.028-.539.434-.297.405-.747.609-1 .453-.254-.157-.461-.085-.461.159s-.63.707-1.4 1.029c-.77.322-1.4.782-1.4 1.022 0 .241-.27.334-.6.207-.33-.126-.6-.061-.6.146 0 .206-.99.844-2.2 1.416-1.21.573-2.2 1.227-2.2 1.455 0 .227-.265.312-.589.187-.325-.124-.73.005-.9.286-.171.282-1.166.92-2.211 1.419s-1.9 1.091-1.9 1.314c0 .224-.27.304-.6.177-.33-.126-.6-.064-.6.139s-.63.667-1.4 1.033c-.77.365-1.4.843-1.4 1.061 0 .219-.277.291-.615.162-.35-.135-.713.019-.843.357-.125.326-.568.593-.985.593-.416 0-.757.158-.757.351 0 .194-.54.576-1.2.849-.66.273-1.2.676-1.2.895 0 .219-.36.304-.8.189-.541-.141-.8-.012-.8.4 0 .412-.259.542-.8.4-.499-.13-.8-.012-.8.314 0 .288-.54.712-1.2.942-.66.23-1.2.629-1.2.886 0 .27-.337.379-.8.258-.52-.136-.8-.012-.8.353 0 .31-.225.567-.5.572-.275.005-.939.346-1.475.758-.537.413-1.212.659-1.5.549-.308-.118-.525.083-.525.488 0 .492-.229.63-.8.48-.52-.136-.8-.012-.8.353 0 .31-.225.567-.5.572-.275.005-.939.346-1.475.758-.537.413-1.212.659-1.5.549-.308-.118-.525.083-.525.488 0 .492-.229.63-.8.48-.477-.125-.8-.012-.8.279 0 .594-3.131 2.327-3.638 2.014-.199-.124-.362.077-.362.446 0 .473-.235.609-.8.461-.52-.136-.8-.012-.8.353 0 .31-.197.563-.438.563s-.96.371-1.598.825c-.637.454-1.34.714-1.561.577-.222-.137-.403.052-.403.421 0 .473-.235.609-.8.461-.502-.131-.8-.012-.8.32 0 .291-.54.768-1.2 1.06-.66.292-1.2.688-1.2.88 0 .192-.36.255-.8.14-.541-.141-.8-.012-.8.4 0 .412-.259.542-.8.4-.462-.121-.8-.012-.8.257 0 .611-1.523 1.554-2.016 1.249-.211-.13-.384.064-.384.433 0 .473-.235.609-.8.461-.52-.136-.8-.012-.8.353 0 .31-.197.563-.438.563s-.96.371-1.598.825c-.637.454-1.34.714-1.561.577-.222-.137-.403.052-.403.421 0 .473-.235.609-.8.461-.477-.125-.8-.012-.8.279 0 .594-3.131 2.327-3.638 2.014-.199-.124-.362.056-.362.399s-.278.624-.617.624c-.339 0-1.008.364-1.486.81-.478.445-1.1.721-1.383.612-.283-.108-.514.081-.514.42 0 .374-.275.561-.7.476-.385-.078-1.028.269-1.429.77-.401.502-.916.912-1.145.912-.229 0-1.666 1.215-3.195 2.7s-2.949 2.76-3.155 2.833c-.207.074-.382.434-.389.8-.017.895-1.042 2.204-1.503 1.919-.204-.126-.284.214-.18.76.11.574.002.988-.257.988-.246 0-.447.36-.447.8 0 .44-.266.8-.59.8-.47 0-.51.211-.196 1.036.335.883.274 1.068-.41 1.247-.442.116-.804.235-.804.266 0 .031.172.657.383 1.39.467 1.63.116 3.661-.633 3.661-.465 0-.55 14.721-.55 95.4 0 84.533.068 95.4.6 95.4.371 0 .627.421.671 1.1.116 1.789.083 2.253-.229 3.2-.218.662-.139.9.298.9.767 0 1.049.81.592 1.7-.267.519-.201.7.254.7.388 0 .614.368.614 1 0 .55.201 1 .447 1 .262 0 .366.418.252 1.014-.106.557-.097.917.021.799.296-.296 1.68 1.003 1.68 1.576 0 .63 6.261 6.857 6.736 6.699.207-.069.713.302 1.124.825.412.523.971.877 1.244.786.273-.091.605.118.738.465.133.347.404.531.603.408.198-.122.882.149 1.519.603.638.454 1.357.825 1.598.825.241 0 .438.264.438.587 0 .357.235.498.597.359.34-.131.702.046.842.41.134.352.407.539.606.416.198-.122.882.149 1.519.603.638.454 1.357.825 1.598.825.241 0 .438.264.438.587 0 .357.235.498.597.359.34-.131.702.046.842.41.134.352.399.544.587.428.461-.285 1.974.692 1.974 1.275 0 .269.338.378.8.257.552-.144.8-.012.8.425 0 .398.222.549.597.405.335-.129.7.041.833.387.13.339.47.527.755.417.285-.109.855.223 1.267.737.411.515 1.063.873 1.448.795.415-.083.7.101.7.451 0 .395.266.522.8.383.563-.147.8-.012.8.455 0 .365.225.628.5.583.795-.128 1.9.483 1.9 1.051 0 .323.303.441.8.311.541-.142.8-.012.8.4 0 .412.259.541.8.4.463-.121.8-.012.8.258 0 .257.54.656 1.2.886.66.23 1.2.654 1.2.942 0 .326.301.444.8.314.544-.142.8-.012.8.406 0 .358.501.725 1.2.878.66.145 1.2.502 1.2.794 0 .334.297.453.8.322.568-.149.8-.012.8.471 0 .374.225.602.5.506.275-.095.929.16 1.454.567.525.407 1.2.74 1.5.74.3 0 .546.253.546.563 0 .365.28.489.8.353.568-.149.8-.012.8.471 0 .374.225.602.5.506.275-.095.929.16 1.454.567.525.407 1.2.74 1.5.74.3 0 .546.253.546.563 0 .365.28.489.8.353.536-.14.8-.012.8.387 0 .343.51.699 1.2.837.663.133 1.2.496 1.2.813 0 .375.275.5.8.363.566-.148.8-.012.8.464 0 .492.216.605.8.42.475-.151.8-.072.8.194 0 .246.54.636 1.2.866.66.23 1.2.654 1.2.942 0 .326.301.444.8.314.44-.115.8-.014.8.226 0 .239.99.903 2.2 1.475 1.21.573 2.2 1.202 2.2 1.399 0 .198.27.255.6.129.33-.127.6-.044.6.184 0 .228.855.832 1.9 1.343 1.045.51 2.04 1.145 2.211 1.411.17.266.575.382.9.258.324-.125.589-.03.589.211 0 .24.63.7 1.4 1.022.77.322 1.4.769 1.4.993 0 .224.268.305.597.179.34-.131.702.046.842.41.134.352.394.548.575.435.182-.112.445-.018.586.209.14.226.872.67 1.627.986.755.315 1.373.757 1.373.981 0 .224.27.304.6.178.33-.127.6-.037.6.2 0 .238.99.9 2.2 1.472 1.21.573 2.2 1.219 2.2 1.436 0 .217.207.266.461.109.253-.156.658-.032.9.277.241.309.94.82 1.553 1.136.702.362 1.031.79.891 1.157-.19.494-.125.5.429.04.557-.463.73-.436 1.183.183.291.399.722.606.956.461.235-.145.427-.075.427.155 0 .23.63.681 1.4 1.003.77.322 1.4.785 1.4 1.029 0 .244.207.316.461.159.253-.156.658-.024.9.295.241.319 1.294.977 2.339 1.463 1.045.486 1.9 1.074 1.9 1.306 0 .232.207.293.461.136.253-.156.658-.021.9.3.241.321 1.294.995 2.339 1.497 1.045.502 1.9 1.096 1.9 1.319 0 .224.265.306.589.181.325-.124.73-.008.9.258.171.266.806.739 1.411 1.051.605.312 1.103.852 1.106 1.2.005.514.071.53.355.081.406-.641 1.239-.263 1.239.562 0 .353.24.472.64.318.353-.135.758-.081.9.121.143.201.755.584 1.36.85.605.265 1.1.779 1.1 1.14 0 .523.117.561.568.187.441-.366.642-.348.9.079.182.303 1.187.959 2.232 1.458 1.046.5 1.9 1.183 1.9 1.521 0 .497.112.52.595.119.482-.4.643-.371.843.151.136.355.464.645.729.645.265 0 .857.349 1.315.776.458.427.957.652 1.108.501.152-.152.519.057.816.464.297.406.722.627.943.491.221-.137.548-.016.726.268.179.284.82.734 1.425 1 .605.265 1.1.779 1.1 1.14 0 .549.103.573.62.143.523-.433.654-.385.835.305.149.571.446.758.98.619.421-.11.765-.043.765.149s.54.588 1.2.88c.66.292 1.2.769 1.2 1.06 0 .332.298.451.8.32.447-.117.8-.012.8.237 0 .246.36.447.8.447.44 0 .8.162.8.361 0 .198.54.549 1.2.779.66.23 1.2.681 1.2 1.002 0 .386.27.512.8.374.44-.115.8-.052.8.14s.54.588 1.2.88c.66.292 1.2.808 1.2 1.147 0 .499.112.522.595.121.482-.4.643-.371.843.151.136.355.588.645 1.005.645.416 0 .757.18.757.4 0 .22.236.4.525.4.288 0 .911.36 1.383.8.472.44 1.136.8 1.475.8.339 0 .617.18.617.4 0 .22.36.4.8.4.44 0 .8.158.8.351 0 .194.54.576 1.2.849.66.273 1.2.74 1.2 1.036 0 .33.248.444.64.293.353-.135.758-.084.9.113.335.462 2.455 1.742 3.36 2.029.385.122.7.381.7.576 0 .194.36.353.8.353.44 0 .8.18.8.4 0 .22.36.4.8.4.44 0 .8.18.8.4 0 .22.36.4.8.4.44 0 .8.239.8.531 0 .362.381.475 1.2.354.878-.129 1.2-.015 1.2.424 0 .492.464.562 2.6.39 2.226-.179 2.6-.114 2.6.446 0 .929 3.009.929 3.366 0 .207-.541.666-.617 2.642-.438 1.968.179 2.392.109 2.392-.39 0-.448.316-.561 1.2-.432.66.097 1.2.027 1.2-.155 0-.183.72-.644 1.6-1.026.88-.381 1.6-.83 1.6-.998 0-.168.36-.306.8-.306.44 0 .8-.201.8-.447 0-.249.353-.354.8-.237.502.131.8.012.8-.32 0-.291.54-.768 1.2-1.06.66-.292 1.2-.667 1.2-.834 0-.166.36-.302.8-.302.44 0 .8-.18.8-.4 0-.22.278-.4.617-.4.339 0 1.003-.36 1.475-.8.472-.44 1.095-.8 1.383-.8.289 0 .525-.201.525-.447 0-.249.353-.354.8-.237.502.131.8.012.8-.32 0-.291.54-.768 1.2-1.06.66-.292 1.2-.667 1.2-.834 0-.166.341-.302.757-.302.417 0 .869-.29 1.005-.645.2-.522.361-.551.843-.151.483.401.595.378.595-.121 0-.339.54-.855 1.2-1.147.66-.292 1.2-.688 1.2-.88 0-.192.36-.255.8-.14.541.141.8.012.8-.4 0-.412.259-.542.8-.4.502.131.8.012.8-.32 0-.291.54-.768 1.2-1.06.66-.292 1.2-.688 1.2-.88 0-.192.36-.255.8-.14.477.125.8.012.8-.279 0-.563 3.118-2.335 3.593-2.042.174.108.414-.18.535-.64.12-.459.408-.718.64-.575.232.144.818-.108 1.302-.56.485-.451 1.098-.82 1.363-.82.265 0 .589-.281.721-.625s.434-.506.67-.36c.236.146.673-.068.97-.474.297-.407.664-.616.816-.464.151.151.65-.074 1.108-.501.458-.427 1.05-.776 1.315-.776.265 0 .584-.267.709-.593.13-.338.493-.492.843-.357.338.129.615.052.615-.172 0-.223.855-.817 1.9-1.319s2.098-1.176 2.339-1.497c.242-.321.647-.456.9-.3.254.157.461.123.461-.076 0-.198.855-.793 1.9-1.321 1.045-.528 2.098-1.214 2.339-1.524.242-.31.647-.435.9-.279.254.157.461.108.461-.109s.99-.863 2.2-1.436c1.21-.572 2.2-1.234 2.2-1.472 0-.237.27-.327.6-.2.33.126.6.046.6-.178 0-.224.63-.671 1.4-.993.77-.322 1.4-.782 1.4-1.022 0-.241.255-.34.567-.22.312.12.673-.06.803-.399a.642.642 0 0 1 .833-.387c.329.126.597.075.597-.113s.63-.641 1.4-1.006c.77-.366 1.4-.855 1.4-1.089 0-.233.27-.32.6-.193.33.126.6.072.6-.122 0-.388 3.173-2.023 3.926-2.023.261 0 .474-.289.474-.643 0-.407.22-.558.6-.412.33.126.6.046.6-.178 0-.224.618-.666 1.373-.981.755-.316 1.487-.76 1.627-.986.141-.227.412-.316.603-.198s.525-.102.742-.49c.217-.388.513-.587.658-.442.145.145.609-.082 1.03-.503.422-.422 1.127-.767 1.567-.767.46 0 .8-.267.8-.627 0-.445.232-.553.8-.373.522.166.804.071.81-.273.01-.515 2.59-1.927 3.521-1.927.258 0 .469-.282.469-.627 0-.445.232-.553.8-.373.568.18.8.072.8-.373 0-.345.246-.627.546-.627.3 0 .975-.333 1.5-.74s1.179-.662 1.454-.567c.275.096.5-.132.5-.506 0-.483.232-.62.8-.471.44.115.8.042.8-.162 0-.204.495-.589 1.1-.854.605-.266 1.24-.704 1.411-.975.17-.27.575-.39.9-.266.378.146.589-.02.589-.463 0-.503.227-.63.84-.47.461.121.734.115.606-.014-.334-.333 1.023-1.284 1.854-1.299.385-.007.7-.304.7-.66 0-.449.244-.583.8-.437.52.136.8.012.8-.353 0-.31.246-.563.546-.563.3 0 .975-.333 1.5-.74s1.179-.662 1.454-.567c.275.096.5-.132.5-.506 0-.483.232-.62.8-.471.503.131.8.012.8-.322 0-.292.525-.646 1.167-.787.641-.141 1.273-.534 1.403-.873a.641.641 0 0 1 .833-.388c.375.144.597-.007.597-.405 0-.437.248-.569.8-.425.44.115.8.042.8-.162 0-.204.495-.59 1.1-.858.605-.267 1.298-.741 1.539-1.052.242-.312.628-.45.858-.307.231.142.53-.029.664-.381.157-.408.493-.544.93-.376.377.144.563.14.414-.009-.373-.373 1.359-1.721 1.93-1.502.254.097.577-.122.717-.488.147-.384.506-.568.851-.435.329.126.597.087.597-.088 0-.498 3.233-2.485 3.637-2.235.2.123.363-.077.363-.446 0-.473.235-.609.8-.461.44.115.8.042.8-.162 0-.204.495-.59 1.1-.858.605-.267 1.298-.741 1.539-1.052.242-.312.647-.438.9-.282.254.157.461.103.461-.12 0-.222.63-.703 1.4-1.069.77-.365 1.4-.843 1.4-1.061 0-.219.255-.3.567-.18.312.12.673-.06.803-.399a.642.642 0 0 1 .833-.387c.362.139.597-.002.597-.359 0-.323.246-.587.546-.587.3 0 1.019-.372 1.596-.826.578-.454 1.213-.725 1.412-.602.199.123.473-.064.607-.416.14-.364.502-.541.842-.41.329.126.597.078.597-.105 0-.53 3.186-2.497 3.614-2.232.212.131.386.056.386-.167 0-.222.63-.703 1.4-1.069.77-.365 1.4-.843 1.4-1.061 0-.219.255-.3.567-.18.312.12.673-.06.803-.399a.642.642 0 0 1 .833-.387c.329.126.597.063.597-.14s.63-.667 1.4-1.033c.77-.365 1.4-.843 1.4-1.061 0-.219.255-.3.567-.18a.612.612 0 0 0 .787-.357c.122-.316.469-.575.771-.575.303 0 .877-.36 1.275-.8.398-.44.933-.8 1.188-.8.256 0 1.713-1.26 3.238-2.799 1.526-1.54 2.993-2.8 3.261-2.8.269-.001.391-.254.272-.563-.23-.599.998-2.312 1.455-2.03.149.092.185-.277.082-.82-.11-.574-.002-.988.257-.988.246 0 .447-.45.447-1 0-.564.231-1 .531-1 .362 0 .475-.381.354-1.2-.129-.884-.016-1.2.432-1.2.499 0 .569-.424.39-2.392-.179-1.976-.103-2.435.438-2.642 1.004-.386 1.011-190.344.007-190.729-.525-.201-.615-.699-.475-2.629.131-1.81.035-2.433-.398-2.599-.358-.138-.501-.581-.384-1.194.114-.594-.025-1.056-.354-1.182-.298-.115-.541-.574-.541-1.02 0-.447-.201-.813-.447-.813-.259 0-.367-.414-.257-.988.103-.543.058-.907-.1-.809-.497.307-1.705-1.342-1.457-1.988.134-.35.022-.615-.262-.615-.274 0-1.749-1.26-3.277-2.8-1.528-1.54-2.98-2.8-3.227-2.8-.247 0-.743-.325-1.102-.722-.36-.397-1.288-.971-2.062-1.275-.775-.304-1.409-.699-1.409-.878 0-.179-.27-.325-.6-.325-.33 0-.6-.18-.6-.4 0-.22-.36-.4-.8-.4-.44 0-.8-.146-.8-.325 0-.179-.63-.573-1.4-.875-.77-.302-1.4-.696-1.4-.875 0-.179-.27-.325-.6-.325-.33 0-.601-.135-.601-.3-.001-.165-.991-.75-2.199-1.3-1.208-.55-2.198-1.114-2.199-1.254 0-.14-.631-.554-1.401-.919-.77-.366-1.4-.847-1.4-1.069 0-.223-.181-.293-.403-.156-.221.137-.924-.123-1.561-.577-.638-.454-1.357-.825-1.598-.825-.241 0-.438-.264-.438-.587 0-.357-.235-.498-.597-.359a.642.642 0 0 1-.833-.387c-.13-.339-.458-.532-.728-.428-.271.104-.824-.177-1.229-.625-.405-.448-1.069-.814-1.475-.814-.406 0-.738-.281-.738-.624 0-.343-.155-.528-.344-.411-.408.253-2.448-.633-2.453-1.065-.002-.165-.273-.3-.603-.3-.33 0-.6-.253-.6-.563 0-.365-.28-.489-.8-.353-.565.148-.8.012-.8-.461 0-.369-.181-.558-.403-.421-.221.137-.924-.123-1.561-.577-.638-.454-1.357-.825-1.598-.825-.241 0-.438-.253-.438-.563 0-.365-.28-.489-.8-.353-.565.148-.8.012-.8-.461 0-.369-.182-.558-.404-.421-.222.138-.876-.122-1.454-.576-.577-.454-1.296-.826-1.596-.826a.556.556 0 0 1-.546-.563c0-.365-.28-.489-.8-.353-.563.147-.8.012-.8-.455 0-.365-.225-.628-.5-.583-.795.128-1.9-.483-1.9-1.051 0-.323-.303-.441-.8-.311-.565.148-.8.012-.8-.461 0-.369-.182-.558-.404-.421-.222.138-.876-.122-1.454-.576-.577-.454-1.296-.826-1.596-.826a.556.556 0 0 1-.546-.563c0-.365-.28-.489-.8-.353-.565.148-.8.012-.8-.461 0-.369-.181-.558-.403-.421-.221.137-.924-.123-1.561-.577-.638-.454-1.357-.825-1.598-.825-.241 0-.438-.264-.438-.587 0-.375-.232-.499-.64-.342-.353.135-.796-.005-.986-.313-.19-.307-.486-.574-.659-.593-.818-.089-1.715-.702-1.715-1.17 0-.323-.303-.441-.8-.311-.541.142-.8.012-.8-.4 0-.412-.259-.541-.8-.4-.544.142-.8.012-.8-.406 0-.358-.501-.725-1.2-.878-.66-.145-1.2-.502-1.2-.794 0-.334-.297-.453-.8-.322-.568.149-.8.012-.8-.471 0-.374-.225-.602-.5-.506-.275.095-.929-.16-1.454-.567-.525-.407-1.2-.74-1.5-.74a.556.556 0 0 1-.546-.563c0-.365-.28-.489-.8-.353-.571.15-.8.012-.8-.48 0-.405-.217-.606-.525-.488-.288.11-.963-.136-1.5-.549-.536-.412-1.2-.753-1.475-.758-.275-.005-.5-.262-.5-.572 0-.365-.28-.489-.8-.353-.556.146-.8.012-.8-.437a.644.644 0 0 0-.638-.647c-.788 0-3.051-1.227-3.473-1.883-.17-.266-.575-.382-.9-.258-.324.125-.589.036-.589-.196 0-.233-.9-.836-2-1.341-1.1-.504-2-1.143-2-1.42 0-.276-.213-.502-.474-.502-.753 0-3.926-1.635-3.926-2.023 0-.194-.27-.248-.6-.122-.33.127-.6.044-.6-.183 0-.228-.99-.882-2.2-1.455-1.21-.572-2.2-1.21-2.2-1.416 0-.207-.27-.272-.6-.146-.33.127-.6.034-.6-.207 0-.24-.63-.7-1.4-1.022-.77-.322-1.4-.769-1.4-.993 0-.224-.268-.305-.597-.179-.345.133-.704-.051-.851-.435-.14-.366-.502-.57-.804-.455-.301.116-.548.039-.548-.171 0-.21-.63-.645-1.4-.967-.77-.322-1.4-.785-1.4-1.029 0-.244-.207-.316-.461-.159-.253.156-.658.024-.9-.295-.241-.319-1.294-.977-2.339-1.463-1.045-.486-1.9-1.074-1.9-1.306 0-.232-.207-.293-.461-.136-.253.156-.658.024-.9-.295-.241-.319-1.294-.977-2.339-1.463-1.045-.486-1.9-1.058-1.9-1.269 0-.212-.268-.283-.597-.157-.34.131-.702-.046-.842-.412-.136-.353-.463-.642-.728-.642-.265 0-.857-.349-1.315-.776-.458-.427-.957-.652-1.108-.501-.152.152-.519-.057-.816-.464-.297-.406-.722-.627-.943-.491-.221.137-.548.016-.726-.268-.179-.284-.82-.734-1.425-1-.605-.265-1.1-.661-1.1-.879 0-.218-.268-.293-.597-.167-.345.133-.704-.051-.851-.435-.14-.366-.497-.572-.793-.459a.736.736 0 0 1-.848-.285c-.171-.271-.806-.709-1.411-.975-.605-.265-1.1-.779-1.1-1.14 0-.523-.117-.561-.568-.187-.439.365-.643.353-.9-.051-.182-.288-.827-.778-1.432-1.09-.605-.312-1.103-.852-1.106-1.2-.005-.514-.071-.53-.355-.081-.421.664-1.239.251-1.239-.624 0-.494-.119-.527-.568-.154-.439.365-.642.352-.9-.059-.182-.292-.827-.748-1.432-1.014-.605-.265-1.1-.779-1.1-1.14 0-.537-.109-.567-.595-.164-.482.4-.643.371-.843-.151-.136-.355-.588-.645-1.005-.645-.416 0-.757-.141-.757-.312 0-.172-.54-.516-1.2-.766-.689-.259-1.2-.744-1.2-1.136 0-.545-.115-.588-.568-.213-.439.365-.643.353-.9-.051-.182-.288-.827-.778-1.432-1.09-.605-.312-1.1-.829-1.1-1.149 0-.469-.115-.486-.595-.087-.482.4-.643.371-.843-.151-.136-.355-.588-.645-1.005-.645-.416 0-.757-.136-.757-.302 0-.167-.54-.542-1.2-.834-.66-.292-1.2-.78-1.2-1.085 0-.344-.243-.461-.64-.308-.353.135-.758.084-.9-.113-.399-.55-1.978-1.358-2.655-1.358-.333 0-.605-.253-.605-.563 0-.365-.28-.489-.8-.353-.527.138-.8.012-.8-.368 0-.414-.34-.528-1.2-.401-.855.125-1.2.012-1.2-.395 0-.45-.506-.534-2.394-.398-1.944.141-2.441.051-2.643-.474-.352-.916-3.363-.917-3.363-.001m17.234 127.39c5.038 1.642 12.366 6.984 12.366 9.015 0 .301.159.548.353.548.195 0 .454.315.576.7.122.385.482 1.15.799 1.7.318.55.757 1.45.975 2l.847 2.119c.248.615.45 1.55.45 2.076 0 .527.18 1.069.4 1.205.22.136.4 1.036.4 2s.18 1.864.4 2c.764.472.499 8.637-.3 9.243-2.215 1.682-3.587.304-3.849-3.864-.312-4.985-.679-7.731-1.088-8.159-.2-.209-.363-.796-.363-1.305 0-.509-.164-1.238-.365-1.62-.201-.382-.866-1.775-1.477-3.095-1.388-2.998-5.569-7.284-8.358-8.567-1.1-.506-2.313-1.081-2.695-1.277-.382-.196-1.291-.356-2.02-.356-.729 0-1.496-.171-1.705-.38-.21-.21-1.727-.435-3.372-.5-3.419-.137-4.381-1.128-3.214-3.309.746-1.395 7.191-1.495 11.24-.174m-2.953 6.814c2.067.832 4.715 2.141 5.153 2.547.239.221 1.184 1.01 2.1 1.754.916.744 1.666 1.599 1.666 1.9 0 .301.15.548.333.548.456 0 2.867 4.738 2.867 5.633 0 .396.18.831.4.967.22.136.4.856.4 1.6 0 .744.18 1.464.4 1.6.225.139.4 2.067.4 4.413v4.166l-1.129.584c-2.068 1.07-3.166-.414-3.388-4.582-.464-8.685-5.594-16.381-10.921-16.381-.529 0-.962-.18-.962-.4 0-.227-1.156-.4-2.669-.4-3.654 0-4.97-1.284-3.717-3.626.487-.91 7.032-1.143 9.067-.323m-1.084 7.642c3.224 1.721 6.803 6.098 6.803 8.321 0 .406.18.85.4.986.22.136.4 1.126.4 2.2 0 1.074.18 2.064.4 2.2 1.372.848-.395 4.2-2.215 4.2-1.754 0-2.279-.933-2.597-4.618-.393-4.542-3.24-8.982-5.759-8.982-.32 0-.693-.18-.829-.4-.136-.22-1.16-.4-2.277-.4-2.855 0-4.206-1.576-3.109-3.626.642-1.2 6.46-1.121 8.783.119m-3.182 6.407c2.21 1.177 3.152 2.192 3.823 4.121.687 1.972.844 84.358.162 84.779-.22.136-.4.622-.4 1.08 0 1.054-1.845 2.835-3.854 3.72-.85.375-1.962.88-2.471 1.122-.686.326-1.123.316-1.694-.041-.424-.265-1.842-.481-3.152-.481s-2.493-.18-2.629-.4c-.136-.22-1.396-.4-2.8-.4s-2.664-.18-2.8-.4c-.136-.22-1.396-.4-2.8-.4s-2.664-.18-2.8-.4c-.136-.22-1.396-.4-2.8-.4s-2.664-.18-2.8-.4c-.136-.22-1.396-.4-2.8-.4s-2.664-.18-2.8-.4c-.136-.22-1.396-.4-2.8-.4s-2.664-.18-2.8-.4c-.136-.22-.563-.4-.949-.4-.723 0-2.271-1.52-3.151-3.095-.39-.698-.5-9.435-.5-39.879V162.44l1.7-1.776c1.776-1.855 1.749-1.845 7.5-2.674 7.065-1.019 8.798-1.242 11.2-1.44 1.43-.118 2.771-.38 2.98-.582.209-.203 1.503-.368 2.876-.368s2.608-.18 2.744-.4c.136-.22 1.396-.4 2.8-.4s2.664-.18 2.8-.4c.51-.826 6.398-.467 8.215.5m-8.215 1.5c-.136.22-1.486.4-3 .4s-2.864.18-3 .4c-.136.22-1.396.4-2.8.4s-2.664.18-2.8.4c-.136.22-1.396.4-2.8.4s-2.664.18-2.8.4c-.136.22-1.486.4-3 .4s-2.864.18-3 .4c-.136.22-1.396.4-2.8.4s-2.664.18-2.8.4c-.136.22-.654.4-1.151.4-.498 0-1.342.495-1.877 1.1l-.972 1.1v38.471c0 45.795-.904 40.92 7.8 42.082 1.65.22 7.32.967 12.6 1.661 5.28.694 9.913 1.424 10.295 1.624.382.199 1.698.362 2.926.362 1.227 0 2.56.176 2.962.391.933.499 2.884-.424 3.777-1.786.577-.88.64-5.264.64-44.291l-.001-43.314-.946-1.1c-.997-1.159-6.633-1.703-7.253-.7m7.302 45.156c.11 38.718.168 37.568-1.878 37.048-.563-.144-2.734-.432-4.824-.641-2.09-.209-5.33-.548-7.2-.753-1.87-.206-5.2-.566-7.4-.8-2.2-.235-5.62-.609-7.6-.832a178.96 178.96 0 0 0-6.8-.614c-4.634-.304-4.2 3.15-4.2-33.45V169.58l1.1-.467c.605-.257 2.72-.609 4.7-.782 3.335-.291 5.546-.509 15.8-1.553 2.09-.213 5.451-.52 7.468-.682 2.018-.163 3.809-.438 3.982-.611.172-.173 1.761-.263 3.532-.2l3.218.115.102 36.156M91.315 281.9c3.603 6.906 4.806 9.147 5.05 9.406.158.169 1.606-2.126 3.217-5.1l2.93-5.406h3.701c4.611 0 4.187-1.399 4.187 13.819 0 14.6.393 13.49-4.705 13.298l-3.095-.117-.2-6.4-.2-6.4-1.749 3.466c-1.181 2.341-2.024 3.54-2.6 3.695-2.45.657-3.374-.035-5.284-3.961l-1.167-2.4-.2 5.716c-.236 6.731-.091 6.53-4.6 6.386l-3.2-.102-.105-13.5-.106-13.5h3.776c3.714 0 3.786.018 4.35 1.1m46.885 2.3v3.2l-7.5.109-7.5.109v3.582H136v2.957c0 3.626.374 3.443-7.033 3.443H123.2v3.2h7.12c8.341 0 8.08-.124 8.08 3.833 0 3.578.695 3.354-10.442 3.362l-8.642.005-2.058-2.176-2.058-2.176v-11.157c0-6.137.123-11.28.273-11.43.15-.15 5.325-.225 11.5-.167L138.2 281v3.2m11.511-2.595c.379.442.689.982.689 1.2 0 .217.15.395.332.395.183 0 .588.495.9 1.1.313.605.883 1.449 1.268 1.875.385.427.7.93.7 1.117 0 1.702 1.359 1.362 2.368-.592.312-.605.717-1.1.9-1.1.182 0 .332-.236.332-.525 0-.288.315-.873.7-1.3.385-.426.955-1.27 1.268-1.875.696-1.349 6.9-1.742 7.389-.467.764 1.991.252 3.261-3.152 7.82-3.041 4.073-4.015 5.947-3.091 5.947.172 0 .629.533 1.014 1.185s.929 1.417 1.209 1.7c1.825 1.844 4.263 6.122 4.263 7.482 0 2.067-.549 2.433-3.651 2.433-2.878 0-3.336-.239-4.621-2.415-.385-.652-.842-1.185-1.014-1.185-.173 0-.314-.236-.314-.525 0-.288-.36-.911-.8-1.383-.44-.472-.8-1.024-.8-1.226 0-1.96-1.283-1.11-3.639 2.408-1.371 2.049-2.689 3.858-2.927 4.02-.851.576-5.705.343-6.239-.3-.602-.725-.262-3.97.501-4.774 1.044-1.1 1.904-2.239 1.904-2.525.001-.162.466-.835 1.035-1.495.569-.66 1.328-1.695 1.686-2.3.358-.605.793-1.1.965-1.1.611 0 .303-1.461-.486-2.308-.44-.472-.8-1.046-.8-1.275a.41.41 0 0 0-.4-.417c-.22 0-.4-.27-.4-.6 0-.33-.141-.6-.314-.6-.172 0-.607-.495-.965-1.1-.358-.605-1.107-1.629-1.664-2.275-1.08-1.255-1.688-3.666-1.262-5.008.385-1.215 6.078-1.224 7.116-.012m29.163-.105c.329.385 1.548 2.59 2.71 4.9 2.937 5.842 2.881 5.807 4.371 2.744a140.32 140.32 0 0 1 2.791-5.344l1.552-2.8h7.502l.106 13.173c.12 14.998.44 13.812-3.73 13.821-4.164.009-4.142.042-4.269-6.594l-.107-5.6-1.452 2.8c-1.923 3.709-5.553 5.197-6.243 2.558-.109-.417-.357-.758-.552-.758-.194 0-.353-.36-.353-.8 0-.44-.138-.8-.306-.8-.168 0-.663-.765-1.1-1.7l-.794-1.7-.111 5.773c-.134 6.908-.087 6.827-3.905 6.827-4.614 0-4.184 1.394-4.184-13.576 0-7.2.12-13.211.267-13.357.644-.644 7.197-.281 7.807.433m45.813 1.386 2.113 2.087v18.911l-2.176 2.058-2.176 2.058h-15.126l-2.261-2.37-2.261-2.371v-17.895l2.099-2.282 2.1-2.282h15.576l2.112 2.086m29.548.168 2.165 2.253v3.087c0 2.885-.079 3.17-1.2 4.343-.66.691-1.2 1.404-1.2 1.585 0 .18.54.846 1.2 1.478 1.14 1.092 1.2 1.312 1.2 4.387v3.238l-2.319 2.295-2.319 2.295-9.781-.108-9.781-.107-.105-13.5-.106-13.5h20.08l2.166 2.254m18.165.746c0 2.933-.022 3-1 3h-1v7.372c0 7.341.004 7.373.9 7.5 1.085.154 1.623 5.35.62 5.986-1.207.765-10.662.398-11.106-.432-.969-1.811-.407-5.626.829-5.626.715 0 .757-.406.757-7.4 0-6.994-.042-7.4-.757-7.4-.932 0-1.243-.75-1.243-3 0-3.096-.2-3 6.243-3h5.757v3m11.907 7.1.107 9.9h6.75c7.742 0 7.236-.279 7.236 3.99 0 3.414.593 3.21-9.32 3.21h-8.055l-2.112-2.086-2.113-2.087V280.77l3.7.115 3.7.115.107 9.9m40.815-7.517c.231 4.487.784 4.183-7.827 4.308l-7.495.109-.123 1.69-.122 1.69 6.722.11 6.723.11.116 2.849c.143 3.492.494 3.338-7.616 3.346l-5.9.005v3.2h7.32c8.504 0 8.28-.097 8.28 3.6 0 3.746.395 3.6-9.768 3.6h-8.809l-2.311-2.287-2.312-2.288v-11.046c0-6.075.123-11.168.273-11.318.15-.15 5.325-.225 11.5-.167L325 281l.122 2.383M210.8 294.186v6.614h8.42l-.11-6.5-.11-6.5-4.1-.114-4.1-.114v6.614m28.8-4.786v1.8h9.2v-3.6h-9.2v1.8m0 9.8v1.6h9.2v-3.2h-9.2v1.6" fill="#042c4c"/>
    <path d="M209.396 134.404c-.655.724-.168 3.301.499 2.634.088-.088-.069-.528-.35-.977-.431-.691-.396-.942.235-1.639.409-.452.654-.822.544-.822-.11 0-.527.362-.928.804m5.837 2.939c.092.078.797.258 1.567.399.985.181 1.222.14.8-.136-.542-.356-2.763-.603-2.367-.263m11.167.361c0 .094.945.959 2.1 1.922 1.155.964 1.847 1.435 1.538 1.048-.62-.778-3.638-3.242-3.638-2.97m-15.895 2.983c.609.092 1.509.09 2-.005.492-.095-.005-.171-1.105-.168-1.1.003-1.503.081-.895.173m16.559 2.536c1.12 1.223 2.333 2.798 2.696 3.5s.757 1.277.876 1.277c.587 0-1.795-3.375-3.58-5.072L225.027 141l2.037 2.223m-6.664-.059c.55.45 1.18.819 1.4.821.428.003-.295-.551-1.6-1.225-.531-.275-.464-.139.2.404m-11.651.536c.399.509 1.053.681 2.4.63l1.851-.07-1.792-.157c-.986-.087-2.066-.371-2.4-.631-.531-.412-.539-.384-.059.228m23.26.2c.005.165.376.75.824 1.3l.815 1-.634-1.3c-.603-1.235-1.025-1.655-1.005-1m-22.509 3.982a5.661 5.661 0 0 0 1.8 0c.495-.095.09-.173-.9-.173s-1.395.078-.9.173m12.675 1.05c.616.807 1.201 1.468 1.3 1.468.278 0-1.454-2.34-1.966-2.656-.25-.155.05.38.666 1.188m-8.775-.532c.44.189 1.07.344 1.4.344.378 0 .304-.127-.2-.344-.44-.189-1.07-.344-1.4-.344-.378 0-.304.127.2.344m2.991 1.083a54.593 54.593 0 0 1 2.4 1.899l1.409 1.182-1.082-1.185c-.595-.652-1.675-1.507-2.4-1.9-1.269-.687-1.281-.687-.327.004m8.423 3.371c-.008.14.249.86.57 1.6.322.74.585 1.076.586.746.002-.576-1.127-2.866-1.156-2.346m7.83.946c.329 1.471.558 1.79.55.767-.003-.422-.189-1.037-.412-1.367-.297-.438-.334-.276-.138.6m-15.85.403c1.593 1.918 1.727 2.042 1.292 1.193-.227-.443-.834-1.162-1.349-1.598-.904-.764-.902-.75.057.405m19.212-.37c.003.422.189 1.037.412 1.367.297.438.334.276.138-.6-.329-1.471-.558-1.79-.55-.767m-30.806.981c-1.65.197-1.533.24 1.4.514 2.522.235 7.011-.22 5.2-.527-1.087-.185-5.005-.177-6.6.013m-5.6.755-1.8.244 2.2.251c1.21.137 2.92.11 3.8-.061l1.6-.311-1.467-.046c-.807-.025-1.707-.108-2-.184-.293-.076-1.343-.028-2.333.107m12.47 1.178c.511.631.993 1.094 1.069 1.028.217-.187-1.298-2.148-1.669-2.162-.182-.007.088.503.6 1.134m-18.07-.369-1.8.253 1.981.194c1.09.107 2.8.079 3.8-.062 1.747-.246 1.761-.258.352-.31-.807-.029-1.707-.115-2-.191-.293-.076-1.343-.024-2.333.116m32.273 1.222c.131.99.303 1.875.383 1.967.301.347.072-2.203-.266-2.967-.237-.534-.276-.202-.117 1m-37.873-.43-1.8.246 1.8.227c.99.124 2.7.1 3.8-.055 1.776-.25 1.836-.287.533-.335-.807-.029-1.707-.115-2-.191-.293-.076-1.343-.027-2.333.108m41.269.83c-.013.55.126 1.72.308 2.6.212 1.026.339 1.241.354.6.013-.55-.126-1.72-.308-2.6-.212-1.026-.339-1.241-.354-.6m7.431 3.256c.244 4.896-.458 6.186-2.341 4.303-.472-.472-.782-.627-.687-.343.38 1.139 1.703 1.617 2.647.956.97-.68 1.138-3.134.49-7.172-.213-1.328-.25-.569-.109 2.256m-54.3-3.288-1.8.243 1.8.254c.99.14 2.61.115 3.6-.056 1.512-.259 1.597-.317.533-.359-.697-.027-1.507-.112-1.8-.188-.293-.076-1.343-.028-2.333.106m50.92 1.632c0 1.21.075 1.705.167 1.1a8.899 8.899 0 0 0 0-2.2c-.092-.605-.167-.11-.167 1.1m-14.44-1c0 .44.144 1.25.32 1.8.254.792.32.833.32.2 0-.44-.144-1.25-.32-1.8-.254-.792-.32-.833-.32-.2m3.176-.2c0 .33.155.96.344 1.4.217.504.344.578.344.2 0-.33-.155-.96-.344-1.4-.217-.504-.344-.578-.344-.2m-45.256.368-1.8.243 1.8.261c.99.143 2.52.116 3.4-.06 1.21-.242 1.34-.331.533-.366-.587-.025-1.307-.108-1.6-.184-.293-.076-1.343-.028-2.333.106m-3.633.853c-.779.481.191.728 1.643.419l1.39-.297-1.291-.201c-.71-.11-1.494-.075-1.742.079m42.626 42.179c0 23.32.048 32.919.107 21.331.059-11.589.059-30.669 0-42.4-.059-11.732-.107-2.251-.107 21.069m-2.4-.2c0 22.99.048 32.395.107 20.9.059-11.495.059-30.305 0-41.8-.059-11.495-.107-2.09-.107 20.9m-41.929-40.409c-.404.409-.674 1.003-.6 1.319.088.37.451.096 1.018-.767.959-1.461.752-1.734-.418-.552m55.045 1.609c0 .99.078 1.395.173.9a5.661 5.661 0 0 0 0-1.8c-.095-.495-.173-.09-.173.9m-6.839.451c-.051 1.347.121 2.001.63 2.4.612.48.64.472.228-.059-.26-.334-.544-1.414-.631-2.4l-.157-1.792-.07 1.851M170.6 201.8c0 21.01.131 38.2.292 38.2.161 0 .298-17.19.304-38.2.006-21.01-.125-38.2-.292-38.2-.167 0-.304 17.19-.304 38.2m59.18-36.239c-.209.199-.74.448-1.18.554-.759.182-.756.195.051.239.468.025 1.075-.224 1.349-.554.543-.654.391-.819-.22-.239M206.4 166l-1.8.28 1.6.02c.88.011 2.05-.124 2.6-.3 1.263-.405.202-.405-2.4 0m-8 .8-1.8.28 1.6.013c.88.007 2.14-.125 2.8-.293 1.6-.407.019-.407-2.6 0m-7.6.8-1.8.28 1.6.013c.88.007 2.14-.125 2.8-.293 1.6-.407.019-.407-2.6 0m-7.8.8-1.6.286 1.4.01c.77.005 1.94-.128 2.6-.296 1.628-.414-.087-.414-2.4 0m-7.8.8-1.8.28 1.6.013c.88.007 2.14-.125 2.8-.293 1.6-.407.019-.407-2.6 0m-1.4 64.8c.66.168 1.74.305 2.4.305h1.2l-1.2-.305c-.66-.168-1.74-.305-2.4-.305h-1.2l1.2.305m5.833.55c.092.082 1.247.25 2.567.373 1.578.147 1.989.112 1.2-.103-1.234-.335-4.064-.538-3.767-.27m8.967 1.073c2.137.442 3.604.427 2.2-.023-.55-.176-1.63-.317-2.4-.314l-1.4.006 1.6.331m5.833.527c.092.082 1.247.25 2.567.373 1.578.147 1.989.112 1.2-.103-1.234-.335-4.064-.538-3.767-.27m8.967 1.073c2.137.442 3.604.427 2.2-.023-.55-.176-1.63-.317-2.4-.314l-1.4.006 1.6.331m-32.2 3.655c0 1.162 2.267 3.085 3.295 2.794l.905-.256-.893-.135c-.491-.074-1.436-.794-2.1-1.599-.797-.967-1.207-1.24-1.207-.804m4.236 3.063c-.32.519 1.698.84 3.78.6 1.376-.158 1.647-.102 1.184.244-.533.399-.533.438 0 .356.33-.05 1.14.021 1.8.158.66.137 2.01.104 3-.074 1.751-.316 1.761-.326.373-.375-.784-.027-2.404-.216-3.6-.418-4.026-.682-6.312-.854-6.537-.491m39.363 2.159c-.589.804-.686 1.084-.254.733.656-.533 1.648-2.033 1.344-2.033-.076 0-.567.585-1.09 1.3m-28.399-.549c-1.561.467 2.105.831 4.6.456l2-.3-1.65-.054c-.908-.029-2.167-.131-2.8-.227-.632-.096-1.6-.04-2.15.125m5.8.801-1.2.285 1.6.24c.88.133 2.5.103 3.6-.065 1.457-.222 1.66-.32.75-.359a28.62 28.62 0 0 1-2.4-.22c-.632-.091-1.69-.038-2.35.119m5.6.8-1.2.285 1.6.236c.88.13 2.59.102 3.8-.062 1.768-.24 1.915-.309.75-.355a30.301 30.301 0 0 1-2.6-.223c-.632-.091-1.69-.038-2.35.119m5.6.854c-2.042.395 1.472.696 4.899.42 1.594-.129 2.944-.103 3 .057.055.16.371.12.701-.09.533-.338.533-.382 0-.393-.33-.006-2.13-.06-4-.119s-3.94-.003-4.6.125m5.1 1.07c.385.1 1.015.1 1.4 0 .385-.101.07-.183-.7-.183s-1.085.082-.7.183M83.6 281.5c0 .165 1.603.3 3.562.3 1.959 0 3.478-.135 3.376-.3-.102-.165-1.705-.3-3.562-.3-1.857 0-3.376.135-3.376.3m18.456 1.285c-1.111 1.977-.859 2.164.291.215l.826-1.4h6.038l-.105 12.7L109 307l-2.89.117-2.89.118-.125-6.518-.124-6.517.014 6.6.015 6.6 2.838.116c4.024.165 3.791 1.029 3.668-13.564L109.4 281.4l-3.218-.115-3.218-.115-.908 1.615m13.817-1.325c-.15.15-.273 5.167-.273 11.149v10.875l2.176 2.058 2.176 2.058 8.524-.085 8.524-.084-8.684-.216-8.684-.215-1.816-1.783-1.816-1.784V281.6h21.2v5.182l-7.5.109-7.5.109-.12 2.3c-.066 1.265.024 2.3.2 2.301.176 0 .259-.986.183-2.191l-.136-2.192 7.536-.109L137.4 287v-5.6l-10.627-.106c-5.845-.059-10.75.016-10.9.166m29.927.032c2.023.097 2.939.319 3.3.798.275.365.5.485.5.266 0-.989-1.075-1.353-3.78-1.278l-2.82.079 2.8.135m13.976.592L159 283l.831-.7c.611-.514 1.542-.7 3.5-.7H166v1.52c0 .836-.225 1.772-.5 2.081-.427.479-.395.481.22.014.53-.402.688-.977.6-2.18l-.12-1.635-2.824-.116c-2.526-.104-2.905-.02-3.6.8m12.006-.38c-.107.277-.143 6.172-.082 13.1l.112 12.596.094-12.9.094-12.9h2.977c2.624 0 3.052.106 3.6.889.343.489.623.697.623.462 0-1.551-6.859-2.705-7.418-1.247m18.888-.22c-.108.174 1.322.258 3.178.186l3.374-.129-.111 12.83c-.061 7.056.026 12.829.195 12.829.168 0 .258-5.805.2-12.9l-.106-12.9-3.267-.116c-1.796-.063-3.355.027-3.463.2m14.785 1.699c-1.02 1.09-1.854 2.215-1.854 2.5.001.284.336-.031.744-.7.408-.669 1.33-1.712 2.049-2.316l1.306-1.1 7.513.117c4.131.064 7.428-.019 7.326-.184-.103-.165-3.571-.3-7.708-.3h-7.522l-1.854 1.983M232.4 281.5c0 .165 4.351.249 9.67.186l9.671-.114 1.729 1.697 1.73 1.698v3.397c0 3.276-.047 3.449-1.3 4.817l-1.3 1.419 1.5-1.378 1.5-1.379v-6.873l-1.914-1.885-1.913-1.885h-9.687c-5.327 0-9.686.135-9.686.3m33.8.082 5.2.218-.009 2.276c-.005 1.252.127 2.062.294 1.8.365-.573.411-3.161.072-4.043-.206-.539-1.025-.621-5.5-.551l-5.257.081 5.2.219m11-.082c0 .165 1.44.3 3.2.3 1.76 0 3.2-.135 3.2-.3 0-.165-1.44-.3-3.2-.3-1.76 0-3.2.135-3.2.3m25.6 0c-.001.165 3.194.254 7.1.197 13.429-.194 14.678-.33 3.8-.413-5.995-.046-10.9.051-10.9.216m-159.907 1.7c0 .77.082 1.085.183.7.1-.385.1-1.015 0-1.4-.101-.385-.183-.07-.183.7m44.907 3.6c-.341.66-.531 1.2-.421 1.2.11 0 .48-.54.821-1.2.341-.66.531-1.2.421-1.2-.11 0-.48.54-.821 1.2m-24.6 1.4c-.681.99-1.148 1.8-1.038 1.8.11 0 .757-.81 1.438-1.8.681-.99 1.148-1.8 1.038-1.8-.11 0-.757.81-1.438 1.8m99.509-1.313c.381.461.482 2.428.4 7.748l-.109 7.13-1 .277c-.883.246-.9.283-.149.318 1.626.076 1.773-.67 1.658-8.379-.091-6.081-.21-7.348-.709-7.513-.497-.164-.513-.092-.091.419m53.991-.188c-4.125.065-7.5.25-7.5.41-.001.434 14.534.117 14.978-.327.21-.21.301-.341.202-.291-.099.049-3.555.143-7.68.208m-106.433.368c-.334.333-.355 13.437-.024 14.3.309.806 8.489.941 9.277.153.506-.506.714-12.845.237-14.087-.252-.657-8.868-.989-9.49-.366m28.78.354c-.346.903-.309 3.693.053 3.918.165.103.3-.742.3-1.876V287.4l4.568-.114c3.371-.084 4.663.021 4.93.4.277.393.324.372.2-.086-.254-.932-9.697-1.1-10.051-.179m30.644 6.889-.091 7.71.977.371c.799.304 1.007.705 1.137 2.193l.16 1.821-.037-1.902c-.03-1.565-.195-1.972-.929-2.294-.871-.382-.894-.568-1.009-8l-.117-7.609-.091 7.71m-124.489-6.877c.001.202.466.907 1.033 1.567l1.031 1.2-.903-1.4c-1.159-1.796-1.163-1.801-1.161-1.367M219.4 294.4v7h-8.8l-.109-7.113-.11-7.113 4.51.113 4.509.113v7m-120.8-5.2c-.341.66-.531 1.2-.421 1.2.11 0 .48-.54.821-1.2.341-.66.531-1.2.421-1.2-.11 0-.48.54-.821 1.2m62.529 1.9c-.951 1.118-2.401 3.3-2.194 3.3.105 0 .837-.9 1.627-2 1.423-1.981 1.715-2.65.567-1.3m22.463.8c.525 1.082.929 1.131 1.659.2.5-.637.485-.65-.164-.141-.622.489-.789.463-1.322-.2-.578-.72-.587-.712-.173.141m138.803 2.418.195 2.682.127-2.358c.069-1.297-.018-2.504-.195-2.682-.177-.178-.234.883-.127 2.358M89.909 300.1 89.8 307l-2.8.229-2.8.23 2.62.07c3.632.098 3.58.204 3.58-7.196 0-5.841.052-6.288.7-6.046.613.23.632.179.151-.412-1.076-1.322-1.233-.59-1.342 6.225m100.072-6.277c-.427.514-.418.601.051.5.468-.102.587.996.679 6.26.125 7.266.009 7.033 3.489 6.942l2.4-.063-2.6-.231-2.6-.231-.109-6.9c-.108-6.765-.268-7.533-1.31-6.277m-11.818 6.577c0 3.63.06 5.115.135 3.3a98.136 98.136 0 0 0 0-6.6c-.075-1.815-.135-.33-.135 3.3m-55.896-3.333c-.584.583-.283 4.441.366 4.69.348.134 3.759.243 7.581.243h6.949l.151 2.7.15 2.7-.032-2.8-.032-2.8-7.4-.2-7.4-.2-.121-2.09-.12-2.09 6.52-.121 6.521-.12-6.433-.09c-3.539-.049-6.554.031-6.7.178M241 297.062c3.835.293 8.111.314 7.94.038-.103-.165-2.292-.269-4.864-.23-2.572.038-3.956.125-3.076.192m14.342 3.138c-.001 1.98.066 2.84.15 1.912.084-.928.085-2.548.003-3.6-.083-1.052-.152-.292-.153 1.688m57.377-3.102c1.825.074 4.705.074 6.4-.001 1.695-.075.201-.136-3.319-.135-3.52 0-4.906.062-3.081.136M238.914 299c.003 1.1.081 1.503.173.895.092-.609.09-1.509-.005-2-.095-.492-.171.005-.168 1.105m-76.923-.212c.466.653 1.051 1.314 1.3 1.468.25.155-.05-.38-.666-1.188-1.337-1.753-1.841-1.976-.634-.28m-8.081.721c-.94 1.089-4.757 6.891-4.533 6.891.112 0 1.292-1.62 2.623-3.6 2.895-4.306 2.346-4.237 4.8-.6 1.113 1.65 2.114 3 2.224 3 .265 0-3.709-5.882-4.164-6.163-.194-.12-.622.093-.95.472m-59.91.34c0 1.537 3.446 2.354 4.432 1.051.45-.596.446-.625-.031-.2-.937.835-3.075.615-3.778-.389-.343-.489-.623-.697-.623-.462m70.75 2.678c.654.95 1.264 2.345 1.355 3.1l.167 1.373.064-1.328c.057-1.176-1.896-4.872-2.574-4.872-.11 0 .334.777.988 1.727m18.185-1.235c.609.387 2.966.393 3.202.008.101-.165-.683-.301-1.742-.302-1.059-.001-1.716.131-1.46.294m65.865-.135c0 .366-1.203.459-4.763.367-2.619-.068-4.679.011-4.576.176.298.479 9.254.361 9.555-.127.145-.234.156-.534.024-.666s-.24-.02-.24.25m34.8-.049c0 .749 1.23.892 7.667.892h6.401l-.134 2.601c-.074 1.43.009 2.6.184 2.6.175-.001.265-1.216.2-2.701l-.118-2.7-6.571-.11c-4.017-.068-6.777-.281-7.1-.549-.337-.279-.529-.291-.529-.033m25.948.601c.171.17 3.627.26 7.681.199l7.371-.11-7.681-.199c-4.224-.109-7.541-.06-7.371.11M203.6 303.138c0 .159.955 1.232 2.122 2.385l2.122 2.096 7.178-.119 7.178-.12-7.242-.09-7.242-.09-2.058-2.176c-1.132-1.197-2.058-2.046-2.058-1.886m20.618 2.044-1.982 2.218 2.163-2.086c1.19-1.147 2.081-2.145 1.982-2.217-.1-.073-1.073.866-2.163 2.085M279 305.2c1.083 1.1 2.06 2 2.17 2 .11 0-.687-.9-1.77-2s-2.06-2-2.17-2c-.11 0 .687.9 1.77 2m25.6.4c.859.88 1.685 1.6 1.834 1.6.15 0-.448-.72-1.328-1.6-.88-.88-1.705-1.6-1.834-1.6s.469.72 1.328 1.6m-161.707 0c0 .77.082 1.085.183.7.1-.385.1-1.015 0-1.4-.101-.385-.183-.07-.183.7m109.307.876-.8.828.878-.454c.924-.478 1.596-1.267 1.046-1.226-.178.013-.684.396-1.124.852m-19.8.236c0 .803 1.508.918 10.4.793l8.6-.122-9.02-.091c-6.374-.065-9.161-.233-9.5-.572-.365-.365-.48-.367-.48-.008m-86.6.488-2.8.259 2.6.064c1.43.036 2.87-.11 3.2-.323.33-.213.42-.359.2-.323-.22.035-1.66.181-3.2.323m14.696.068c.277.176 1.674.302 3.104.279 2.986-.046 2.525-.234-1.104-.45-1.376-.082-2.276-.005-2 .171M266.4 307.2l-5 .238 4.876.081c2.911.048 4.976-.08 5.124-.319.136-.22.192-.364.124-.319-.068.045-2.374.188-5.124.319m49.2 0-8.6.224 8.476.088c5.317.055 8.569-.061 8.724-.312.136-.22.192-.36.124-.312-.068.048-3.994.189-8.724.312m-142.1.289c.715.089 1.885.089 2.6 0 .715-.088.13-.161-1.3-.161-1.43 0-2.015.073-1.3.161m111.8.009c2.145.072 5.655.072 7.8 0 2.145-.072.39-.131-3.9-.131s-6.045.059-3.9.131M198.8 433.6c0 .22.27.4.6.4.33 0 .6-.18.6-.4 0-.22-.27-.4-.6-.4-.33 0-.6.18-.6.4" fill="#8494ac"/>
    <path d="M269.2 39.32c0 .366 1.611 1.386 1.774 1.123.11-.179-.243-.528-.787-.776-.543-.247-.987-.404-.987-.347M122.4 49.2c0 .22.27.4.6.4.33 0 .6-.18.6-.4 0-.22-.27-.4-.6-.4-.33 0-.6.18-.6.4m-100 59.105c0 .241-.291.729-.648 1.085-.356.357-.55.745-.432.864.119.118.525-.256.902-.832.378-.576.572-1.161.432-1.301-.14-.14-.254-.057-.254.184M386 108.3c0 .64 1.131 1.902 1.434 1.599.165-.164.089-.299-.167-.299-.257 0-.467-.259-.467-.576 0-.317-.18-.688-.4-.824-.22-.136-.4-.091-.4.1m-175.3 29.182a5.661 5.661 0 0 0 1.8 0c.495-.095.09-.173-.9-.173s-1.395.078-.9.173m0 7.2a5.661 5.661 0 0 0 1.8 0c.495-.095.09-.173-.9-.173s-1.395.078-.9.173m-1.195 7.201c.497.096 1.217.092 1.6-.008.382-.1-.025-.179-.905-.174-.88.004-1.193.086-.695.182m3.888 49.717c0 22.99.048 32.395.107 20.9.059-11.495.059-30.305 0-41.8-.059-11.495-.107-2.09-.107 20.9m17.116-40c0 .99.078 1.395.173.9a5.661 5.661 0 0 0 0-1.8c-.095-.495-.173-.09-.173.9m7.215 1.4c.002 1.32.077 1.812.166 1.093.089-.719.087-1.799-.004-2.4s-.164-.013-.162 1.307m-18.031-.2c0 .77.082 1.085.183.7.1-.385.1-1.015 0-1.4-.101-.385-.183-.07-.183.7m-49.501 39c0 20.46.049 28.771.108 18.47.059-10.302.059-27.042 0-37.2-.06-10.159-.108-1.73-.108 18.73M85.3 281.091c.825.087 2.175.087 3 0 .825-.086.15-.157-1.5-.157s-2.325.071-1.5.157m19.2 0c.825.087 2.175.087 3 0 .825-.086.15-.157-1.5-.157s-2.325.071-1.5.157m16.824.008c3.038.068 7.898.068 10.8 0 2.902-.068.416-.124-5.524-.124s-8.314.056-5.276.124m21.737.001c-.102.165.742.248 1.877.184 3.409-.19 3.825-.372.986-.43-1.472-.029-2.76.081-2.863.246m18.83-.011c.71.088 1.97.09 2.8.003.83-.087.249-.159-1.291-.161-1.54-.002-2.219.069-1.509.158m11.809.002c.825.087 2.175.087 3 0 .825-.086.15-.157-1.5-.157s-2.325.071-1.5.157m18.991-.002c.71.088 1.97.09 2.8.003.83-.087.249-.159-1.291-.161-1.54-.002-2.219.069-1.509.158m18.409.009c2.035.073 5.365.073 7.4 0s.37-.132-3.7-.132-5.735.059-3.7.132m26.623.001c2.597.07 6.737.069 9.2-.001 2.462-.07.337-.127-4.723-.126-5.06 0-7.075.057-4.477.127m26.177-.003c1.375.078 3.625.078 5 0s.25-.142-2.5-.142-3.875.064-2.5.142m15-.005c.825.087 2.175.087 3 0 .825-.086.15-.157-1.5-.157s-2.325.071-1.5.157m29.4.008c2.915.068 7.685.068 10.6 0s.53-.124-5.3-.124-8.215.056-5.3.124m-54.717 1.801c1.658 1.766 2.017 2.084 2.017 1.783 0-.064-.855-.919-1.9-1.9L251.8 281l1.783 1.9m-115.988 1.382c-.107 1.585-.051 2.737.126 2.559.176-.177.264-1.474.195-2.882l-.125-2.559-.196 2.882m94.491 9.994c-.047 7.082.049 12.96.214 13.063.165.102.254-3.622.198-8.277-.194-16.078-.326-17.615-.412-4.786m-122.308.124c0 6.93.055 9.765.121 6.3a394.95 394.95 0 0 0 0-12.6c-.066-3.465-.121-.63-.121 6.3m167.197-1.8c0 5.94.056 8.426.124 5.524s.068-7.762 0-10.8c-.068-3.038-.124-.664-.124 5.276m-50.576 1.519.2 9.281.108-8.972c.06-4.935-.03-9.111-.199-9.281-.169-.17-.218 3.868-.109 8.972m82.962-6.361c-.118.307-.157 1.252-.088 2.1l.127 1.542 6.2.015 6.2.015-6.138-.125-6.138-.126.138-1.99c.142-2.051.069-2.397-.301-1.431m-70.002 1.642.041 2 4.6.019 4.6.019-4.479-.131-4.478-.132-.162-1.888-.163-1.887.041 2m-19.996 5c0 3.63.06 5.115.135 3.3a98.136 98.136 0 0 0 0-6.6c-.075-1.815-.135-.33-.135 3.3m-93.263-2.903c1.705.075 4.495.075 6.2 0s.31-.136-3.1-.136-4.805.061-3.1.136m9.628 2.903c0 1.43.073 2.015.161 1.3.089-.715.089-1.885 0-2.6-.088-.715-.161-.13-.161 1.3m-45.152.518c-.109.286-.143 3.121-.076 6.3l.124 5.782.088-6.124c.065-4.508.21-6.048.55-5.838.286.177.353.11.176-.176-.371-.6-.616-.584-.862.056M239.314 299c.003 1.1.081 1.503.173.895.092-.609.09-1.509-.005-2-.095-.492-.171.005-.168 1.105m69.995.2c0 .99.078 1.395.173.9a5.661 5.661 0 0 0 0-1.8c-.095-.495-.173-.09-.173.9m-98.555 2.115c.174.174 2.101.263 4.281.198l3.965-.118-4.282-.197c-2.355-.109-4.139-.056-3.964.117m-84.274.183c1.914.073 5.154.073 7.2 0 2.046-.072.48-.132-3.48-.133-3.96 0-5.634.059-3.72.133m58.12.102-1.6.286 1.476.057c.812.031 1.588-.123 1.724-.343.136-.22.192-.374.124-.343-.068.031-.844.185-1.724.343m57.1-.104c1.265.079 3.335.079 4.6 0 1.265-.08.23-.145-2.3-.145s-3.565.065-2.3.145m46.2.002c1.815.074 4.785.074 6.6 0 1.815-.075.33-.135-3.3-.135s-5.115.06-3.3.135m24.7-.025c5.825.288 12.11.302 11.939.027-.102-.165-3.371-.265-7.263-.223-3.892.042-5.996.131-4.676.196m-216.9.403c.385.1 1.015.1 1.4 0 .385-.101.07-.183-.7-.183s-1.085.082-.7.183m41.895 2.806c-.107 1.585-.051 2.737.126 2.559.176-.177.264-1.474.195-2.882l-.125-2.559-.196 2.882m52.898-1.482c0 .77.082 1.085.183.7.1-.385.1-1.015 0-1.4-.101-.385-.183-.07-.183.7m-73.093 2.4c1.083 1.1 2.06 2 2.17 2 .11 0-.687-.9-1.77-2s-2.06-2-2.17-2c-.11 0 .687.9 1.77 2M15.804 317.593c-.138.224-.074.407.143.407.217 0 .477.315.577.7.142.541.194.5.23-.176.051-.971-.557-1.566-.95-.931m5.396 12.555c0 .658.718 1.267 1.074.911.122-.121-.07-.512-.426-.869-.56-.559-.648-.565-.648-.042m365.879.009c-.164.417-.204.852-.088.967.364.365.685-.233.533-.993-.141-.696-.162-.695-.445.026M363.2 346c0 .22.27.4.6.4.33 0 .6-.18.6-.4 0-.22-.27-.4-.6-.4-.33 0-.6.18-.6.4m-240.583 44.772c-.273.442.358.92.727.55.381-.38.31-.922-.12-.922-.207 0-.48.168-.607.372m141.971 12.048c-.381.615.14 1.012.654.498.287-.287.294-.511.02-.679-.223-.139-.527-.057-.674.181" fill="#5d788f"/>
    <path d="M211.392 201.8c0 19.58.048 27.531.108 17.67.06-9.862.059-25.882 0-35.6-.06-9.719-.109-1.65-.108 17.93m49.522 82c.003 1.1.081 1.503.173.895.092-.609.09-1.509-.005-2-.095-.492-.171.005-.168 1.105m22.859 7.6c0 5.28.057 7.385.126 4.677s.069-7.028 0-9.6c-.07-2.572-.127-.357-.126 4.923m40.751-7.2c.002 1.32.077 1.812.166 1.093.089-.719.087-1.799-.004-2.4s-.164-.013-.162 1.307m-121.155 10.2c0 4.51.058 6.355.129 4.1.072-2.255.072-5.945 0-8.2-.071-2.255-.129-.41-.129 4.1m59.597 0c0 4.07.059 5.735.132 3.7.073-2.035.073-5.365 0-7.4s-.132-.37-.132 3.7m-14.057-4.8c0 .99.078 1.395.173.9a5.661 5.661 0 0 0 0-1.8c-.095-.495-.173-.09-.173.9m0 9.6c0 .99.078 1.395.173.9a5.661 5.661 0 0 0 0-1.8c-.095-.495-.173-.09-.173.9m75.611 5.2c0 1.21.075 1.705.167 1.1a8.899 8.899 0 0 0 0-2.2c-.092-.605-.167-.11-.167 1.1m-63.606.2c.003 1.1.081 1.503.173.895.092-.609.09-1.509-.005-2-.095-.492-.171.005-.168 1.105" fill="#7c94a4"/>
    <path d="M211.5 133.489c.715.089 1.885.089 2.6 0 .715-.088.13-.161-1.3-.161-1.43 0-2.015.073-1.3.161m22.193 29.711c0 .77.082 1.085.183.7.1-.385.1-1.015 0-1.4-.101-.385-.183-.07-.183.7m-61.102 38.4c0 17.49.049 24.645.109 15.9s.06-23.055 0-31.8c-.06-8.745-.109-1.59-.109 15.9m-1.213 92.8c0 6.93.055 9.765.121 6.3a394.95 394.95 0 0 0 0-12.6c-.066-3.465-.121-.63-.121 6.3m131.197-1.8c0 5.94.056 8.426.124 5.524s.068-7.762 0-10.8c-.068-3.038-.124-.664-.124 5.276m-46.844-4c.002 1.54.074 2.121.161 1.291.087-.83.085-2.09-.003-2.8-.089-.71-.16-.031-.158 1.509m-65.211 8.2c0 1.21.075 1.705.167 1.1a8.899 8.899 0 0 0 0-2.2c-.092-.605-.167-.11-.167 1.1m65.211 3.4c.002 1.54.074 2.121.161 1.291.087-.83.085-2.09-.003-2.8-.089-.71-.16-.031-.158 1.509m-65.23.4c.004.88.086 1.193.182.695.096-.497.092-1.217-.008-1.6-.1-.382-.179.025-.174.905" fill="#7c8ca4"/>
    <path d="M201.455 6.6c-.156.408.022.6.558.6.433 0 .787-.27.787-.6 0-.33-.251-.6-.557-.6-.307 0-.661.27-.788.6m4.643-.1c.091.275.585.561 1.098.636.854.125.879.082.297-.5-.757-.757-1.628-.842-1.395-.136M191.6 9.571c0 .204-.315.453-.7.553-.643.168-.641.187.029.23.4.025.998-.224 1.328-.554.533-.533.53-.6-.028-.6-.346 0-.629.167-.629.371m25.024.216c1.014.767 1.813.774 1.521.013-.127-.33-.696-.6-1.264-.6-.995 0-1.005.022-.257.587M186.9 11.833c.392.393-1.06 1.641-1.7 1.46-.533-.15-.533-.121 0 .262.44.315.707.292 1-.087.22-.285.715-.636 1.1-.78.89-.334.913-1.088.033-1.088-.366 0-.561.105-.433.233m34.178.023c-.299.299.028.944.479.944.17 0 .31-.27.31-.6 0-.627-.353-.781-.789-.344M182.933 14.6c0 .679.232.737 1.001.25.425-.27.398-.39-.133-.594-.883-.339-.868-.345-.868.344m-1.19.508c.147.237-.05.514-.438.615-.537.14-.49.195.195.231.957.049 1.207-.517.438-.992-.274-.17-.353-.111-.195.146m44.935-.052c-.32.319.041.944.546.944.207 0 .376-.27.376-.6 0-.619-.472-.795-.922-.344m2.928 2.03c-.003.267.342.672.768.9 1.03.551 1.226.523 1.226-.173 0-.375-.232-.499-.64-.342-.353.135-.8-.006-.994-.313-.239-.377-.356-.4-.36-.072m-52.273.714c0 .679.232.737 1.001.25.425-.27.398-.39-.133-.594-.883-.339-.868-.345-.868.344M232 18.837c0 .2.295.363.656.363.361 0 .911.315 1.222.7.517.639.531.626.157-.15-.413-.858-2.035-1.585-2.035-.913m3.246 1.249c-.025.377.302.872.728 1.1 1.014.543 1.096.529 1.388-.23.199-.519.056-.597-.728-.4-.724.181-1.022.064-1.158-.456-.169-.645-.187-.647-.23-.014M171.733 21c0 .342.164.568.364.501a.566.566 0 0 0 .363-.501.566.566 0 0 0-.363-.501c-.2-.067-.364.159-.364.501m-4 2.446c0 .686.315.7 1.197.054.619-.453.595-.505-.257-.554-.559-.031-.94.171-.94.5m-1.523.57c.233.377.132.447-.365.257-.408-.157-.587-.103-.442.132.348.564 1.896.491 1.705-.08-.087-.261-.397-.555-.689-.652-.35-.117-.421 0-.209.343m75.588-.013c-.137.221.078.525.477.675.399.15.963.554 1.253.897.291.344.207.04-.186-.675-.745-1.356-1.124-1.576-1.544-.897m3.048 1.683c-.025.377.302.872.728 1.1 1.04.557 1.226.524 1.226-.213 0-.436-.234-.553-.767-.383-.533.169-.825.024-.954-.473-.167-.643-.191-.646-.233-.031M162 26.642c0 .691.439.71 1.33.058.615-.45.583-.506-.324-.558-.621-.035-1.006.156-1.006.5m86.903 1.758c.09.33.419.6.73.6.312 0 .882.315 1.267.7.849.849 1.342.888 1.633.131.161-.421-.036-.523-.757-.392-.707.128-.976-.003-.976-.474 0-.443-.213-.569-.668-.394-.367.141-.831.025-1.03-.257-.277-.392-.324-.372-.199.086m-90.871.527c-.024.54-.237.662-.832.473-.568-.18-.8-.072-.8.373 0 .768.416.796 1.379.092.402-.294.631-.789.508-1.1-.161-.405-.233-.359-.255.162m-5.6 3.2c-.023.518-.243.66-.765.494-.491-.156-.734-.032-.734.373 0 .333.218.606.485.606.693 0 1.495-1.081 1.251-1.687-.125-.312-.218-.229-.237.214m104.717-.027c.388.495.411.7.076.7-.26 0-.361.18-.225.4.136.22.417.4.624.4.629 0 .42-1.067-.324-1.651-.634-.498-.649-.483-.151.151M150 33.96c0 .312-.295.4-.8.24-.577-.183-.8-.072-.8.4 0 .472-.223.583-.8.4-.568-.18-.8-.072-.8.373 0 .834.634.793 1.525-.098.399-.399.922-.659 1.163-.579.505.168 1.111-.63.752-.989-.132-.132-.24-.018-.24.253m108.503.04c.09.33.419.6.73.6.312 0 .882.315 1.267.7.868.868 1.5.899 1.5.073 0-.445-.232-.553-.8-.373-.583.185-.8.072-.8-.416 0-.461-.208-.59-.668-.413-.367.141-.831.025-1.03-.257-.277-.392-.324-.372-.199.086m-112.958 1.921c.461.323.461.416 0 .599-.367.146-.305.227.188.248.839.037.71-.839-.158-1.073-.475-.129-.48-.09-.03.226m117.353-.055c-.554.223-.287.934.349.934.22 0 .298-.165.174-.366-.124-.201 0-.457.277-.568.276-.112.322-.203.102-.203-.22 0-.626.091-.902.203M144.4 37.16c0 .312-.295.4-.8.24-.571-.181-.8-.072-.8.381 0 .454-.277.584-.976.458-.721-.131-.918-.029-.757.392.293.763.785.717 1.658-.156.399-.399.922-.659 1.163-.579.505.168 1.111-.63.752-.989-.132-.132-.24-.018-.24.253m121.246.526c-.025.377.302.872.728 1.1 1.023.548 1.226.523 1.226-.149 0-.356-.279-.489-.764-.362-.512.134-.825-.043-.953-.538-.165-.639-.196-.646-.237-.051m2.852 1.38c-.277.111-.401.367-.277.568.34.55.865.441 1.124-.234.235-.614.038-.691-.847-.334M137.232 40.9c-.019.423-.349.7-.832.7-.44 0-.8.18-.8.4 0 .551.509.501 1.379-.135.402-.294.631-.789.508-1.1-.165-.416-.232-.381-.255.135m134.014-.014c-.025.377.302.872.728 1.1.967.518 1.226.521 1.226.014 0-.22-.347-.4-.771-.4-.424 0-.853-.315-.953-.7-.169-.646-.187-.647-.23-.014M131.6 44.333c0 .257-.36.467-.8.467-.44 0-.8.18-.8.4 0 .559.512.499 1.423-.167.427-.312.641-.702.476-.867-.164-.165-.299-.089-.299.167m145.232-.047c-.018.267.316.672.742.9.967.518 1.226.521 1.226.014 0-.22-.345-.4-.767-.4-.421 0-.857-.225-.968-.5-.152-.377-.21-.38-.233-.014M127.6 46.733c0 .257-.36.467-.8.467-.44 0-.8.18-.8.4 0 .559.512.499 1.423-.167.427-.312.641-.702.476-.867-.164-.165-.299-.089-.299.167m153.232-.073c-.018.252.694.837 1.58 1.3 1.839.958 1.988.991 1.988.44 0-.22-.36-.4-.8-.4-.44 0-.8-.18-.8-.4 0-.22-.345-.4-.767-.4-.421 0-.857-.225-.968-.5-.133-.33-.213-.344-.233-.04M122 49.933c0 .257-.36.467-.8.467-.44 0-.8.18-.8.4 0 .559.512.499 1.423-.167.427-.312.641-.702.476-.867-.164-.165-.299-.089-.299.167m164.551.119c.113.588 1.849 1.279 1.849.735 0-.213-.345-.387-.767-.387-.421 0-.858-.184-.97-.41-.112-.226-.162-.198-.112.062M116.4 53.133c0 .257-.36.467-.8.467-.44 0-.8.18-.8.4 0 .559.512.499 1.423-.167.427-.312.641-.702.476-.867-.164-.165-.299-.089-.299.167m175.704.467c1.704.913 1.896.954 1.896.4 0-.22-.36-.4-.8-.4-.44 0-.8-.18-.8-.4 0-.22-.402-.4-.894-.4-.726 0-.613.15.598.8m-179.704 2c0 .22-.36.4-.8.4-.44 0-.8.18-.8.4 0 .22-.36.4-.8.4-.46 0-.8.267-.8.627 0 .537.158.518 1.1-.135.605-.419 1.415-.875 1.8-1.014.62-.224 1.016-1.078.5-1.078-.11 0-.2.18-.2.4m185.304 1.2c1.704.913 1.896.954 1.896.4 0-.22-.36-.4-.8-.4-.44 0-.8-.18-.8-.4 0-.22-.402-.4-.894-.4-.726 0-.613.15.598.8M106.8 58.733c0 .257-.36.467-.8.467-.44 0-.8.18-.8.4 0 .559.512.499 1.423-.167.427-.312.641-.702.476-.867-.164-.165-.299-.089-.299.167m195.6.756c.33.124 1.095.572 1.7.995.938.657 1.1.678 1.1.143 0-.36-.34-.627-.8-.627-.44 0-.8-.18-.8-.4 0-.22-.405-.386-.9-.368-.597.021-.698.107-.3.257M102.8 61.2c0 .22-.36.4-.8.4-.44 0-.8.18-.8.4 0 .22-.36.4-.8.4-.44 0-.8.18-.8.4 0 .551.149.518 1.988-.44 1.359-.709 2.13-1.56 1.412-1.56-.11 0-.2.18-.2.4m-7.2 4c0 .22-.36.4-.8.4-.44 0-.8.18-.8.4 0 .554.192.513 1.896-.4 1.211-.65 1.324-.8.598-.8-.492 0-.894.18-.894.4m218.2.8c1.093.469 1.4.469 1.4 0 0-.22-.495-.387-1.1-.372-.975.025-1.009.067-.3.372M91.6 67.6c0 .22-.36.4-.8.4-.44 0-.8.18-.8.4 0 .22-.251.4-.557.4-.307 0-.661.27-.788.6-.126.33-.056.6.158.6.213 0 .387-.159.387-.354 0-.195.63-.654 1.4-1.019 1.174-.557 1.906-1.427 1.2-1.427-.11 0-.2.18-.2.4m227.233 1.313c.092.062.482.354.867.649.599.459.7.442.7-.113 0-.399-.334-.649-.867-.649-.476 0-.791.051-.7.113M84.4 71.6c0 .22-.193.4-.429.4-.235 0-.698.27-1.028.6-.533.533-.53.6.028.6.346 0 .629-.147.629-.327 0-.181.585-.619 1.3-.975 1.129-.562 1.182-.65.4-.672-.495-.014-.9.154-.9.374m240.2.612c1.308 1.073 2.224 1.355 1.257.388-.33-.33-.793-.6-1.028-.6-.236 0-.429-.18-.429-.4 0-.22-.225-.394-.5-.386-.275.008.04.457.7.998m3.832 1.888c-.018.385.214.7.514.7.3 0 1.004.36 1.563.8 1.419 1.116 1.727.999.527-.2-.55-.55-1.263-1-1.584-1-.322 0-.676-.225-.787-.5-.121-.299-.215-.218-.233.2M78.8 74.8c0 .501.424.501 1.2 0 .485-.314.428-.389-.3-.394-.495-.003-.9.174-.9.394m-1.516 1.015c-.424.481-.414.585.057.585.316 0 .677-.27.804-.6.291-.759-.185-.751-.861.015M74.8 77.2c0 .22-.36.4-.8.4-.46 0-.8.267-.8.627 0 .535.162.514 1.1-.143.605-.423 1.37-.871 1.7-.995.398-.15.297-.236-.3-.257-.495-.018-.9.148-.9.368m259.232.004c-.035.661 1.334 1.697 1.725 1.306.478-.479.23-.91-.524-.91-.421 0-.857-.225-.968-.5-.137-.34-.212-.307-.233.104M69.2 80.4c0 .22-.251.4-.557.4-.307 0-.665.281-.797.625-.193.501-.023.473.857-.143.603-.422 1.367-.869 1.697-.993.398-.15.297-.236-.3-.257-.495-.018-.9.148-.9.368m270.6.588c1.41 1.156 1.667 1.219 1.667.412 0-.33-.33-.6-.734-.6-.403 0-.733-.18-.733-.4 0-.22-.315-.399-.7-.398-.532.001-.412.238.5.986M63.6 83.6c0 .22-.42.4-.933.4-.563 0-.934.238-.934.6 0 .729-.119.731 1.406-.029 1.212-.605 1.693-1.371.861-1.371-.22 0-.4.18-.4.4m281.8.612c1.562 1.281 2.121 1.273.836-.012-.55-.55-1.233-.994-1.518-.986-.285.008.022.457.682.998M56.886 87.424c-1.182 1.261-.63 1.254.914-.012.729-.597.964-.979.6-.973-.33.005-1.011.449-1.514.985m293.354-.463c.119.308.518.668.888.8.369.132.932.356 1.249.498.318.143.101-.217-.482-.8-1.144-1.144-2.002-1.402-1.655-.498m4.96 2.839c1.069 1.138 1.6 1.271 1.6.4 0-.333-.356-.6-.8-.6-.44 0-.8-.18-.8-.4 0-.22-.211-.4-.47-.4-.258 0-.047.45.47 1m-303.914.824c-.7.747-.77.976-.3.976.338 0 .614-.159.614-.353 0-.195.36-.448.8-.563.44-.115.8-.406.8-.647 0-.734-.949-.443-1.914.587M48.032 92.3c-.018.275-.362.5-.765.5-.404 0-.734.27-.734.6 0 .736.25.739 1.209.013.408-.309.647-.799.531-1.088-.157-.393-.218-.399-.241-.025M360 92.354c0 .479 2.01 1.77 2.301 1.478.128-.128.003-.232-.277-.232-.281 0-.41-.26-.287-.58.148-.387.03-.505-.357-.357-.319.123-.58.023-.58-.22 0-.244-.18-.443-.4-.443-.22 0-.4.159-.4.354m2.832 1.517c-.018.259.494.733 1.138 1.054.973.485 1.134.49.957.029-.117-.305-.538-.554-.936-.554-.399 0-.815-.225-.926-.5-.142-.35-.211-.359-.233-.029M41.714 96.242c-1.15 1.244-.647 1.227.886-.03.706-.578.953-.972.6-.955-.33.015-.999.458-1.486.985m323.886-.489c0 .305.315.662.7.794.385.132 1.105.417 1.6.634.576.251.9.254.9.006 0-.213-.32-.387-.712-.387-.391 0-.971-.36-1.288-.8-.67-.929-1.2-1.038-1.2-.247M36.086 99.424c-1.076 1.149-1.017 1.18.657.345.696-.348 1.163-.798 1.038-1-.342-.553-.688-.419-1.695.655m335.114-.522c0 .277.585.757 1.3 1.068.715.311 1.432.76 1.594.998.178.262.296.157.3-.268.003-.407-.292-.7-.706-.7-.391 0-.971-.36-1.288-.8-.654-.907-1.2-1.043-1.2-.298m-339.828 2.826c-.32.835.08 1.38.618.842.227-.227.233-.609.015-.962-.307-.497-.403-.478-.633.12m345.431.372c.002.275.437.701.967.947.779.361.924.341.754-.1-.115-.301-.471-.547-.79-.547-.32 0-.47-.18-.334-.4.136-.22.057-.4-.176-.4-.233 0-.423.225-.421.5m3.197 2.1c.517.55 1.128 1 1.358 1 .23 0 1.494 1.035 2.808 2.3 1.314 1.265 2.131 1.94 1.815 1.5-.968-1.348-3.958-4.061-4.997-4.535-.541-.246-.984-.632-.984-.856 0-.225-.211-.409-.47-.409-.258 0-.047.45.47 1m-352.7.482c-.526.102-.887.453-.868.846.019.416.108.482.233.172a.868.868 0 0 1 .745-.5c.298 0 .654-.18.79-.4.136-.22.192-.375.124-.346-.068.03-.529.133-1.024.228m-2.726 2.429c-1.236 1.097-2.413 2.489-2.106 2.489.091 0 .96-.81 1.932-1.8 1.966-2.004 2.057-2.362.174-.689m363.458 4.519c-.018.347.463 1.067 1.068 1.6l1.1.97-.849-1c-.467-.55-.948-1.27-1.069-1.6-.187-.514-.223-.509-.25.03M16.678 122.424c-.124.473-.415.738-.651.593-.25-.155-.427.078-.427.559 0 1.306 1.073.957 1.353-.44.287-1.438.065-2.013-.275-.712m375.394 1.247c.071.476.353.94.628 1.031.739.243.615-1.372-.128-1.657-.469-.18-.595-.023-.5.626m-184.418 18.767c-.033.633.297 1.335.846 1.8.893.756.895.756.236-.038-.364-.44-.745-1.25-.845-1.8l-.182-1-.055 1.038m18.546.762c.859.88 1.652 1.6 1.762 1.6.11 0-.503-.72-1.362-1.6-.859-.88-1.652-1.6-1.762-1.6-.11 0 .503.72 1.362 1.6m-40 15.6c-.771.331-.769.345.076.372.482.015.988-.152 1.124-.372.292-.473-.099-.473-1.2 0m30.4 42.8c0 23.278.135 42.24.3 42.138.388-.24.382-83.39-.006-84-.162-.254-.294 18.584-.294 41.862m-3.607.2c0 23.1.048 32.491.107 20.869a4983.04 4983.04 0 0 0 0-42c-.059-11.478-.107-1.969-.107 21.131m6.213-38.967c.003.752.171 1.628.373 1.946.237.375.286-.049.139-1.2-.283-2.209-.52-2.554-.512-.746m4.594.567c0 .728.135 1.24.3 1.138.165-.102.3-.614.3-1.138 0-.524-.135-1.036-.3-1.138-.165-.102-.3.41-.3 1.138m-52.333.467c-.366.366-.327 75.019.039 75.595.162.254.294-16.711.294-37.7 0-20.989-.015-38.162-.033-38.162-.019 0-.154.12-.3.267m33.333 1.754c-.43.293-.146.333 1 .141 1.984-.332 2.304-.564.767-.556-.642.003-1.437.19-1.767.415m6.6 36.117V238.2l-1.6-.059-1.6-.058 1.292.414c2.674.857 2.508 3.285 2.508-36.722 0-19.87-.135-36.211-.3-36.313-.165-.102-.3 16.222-.3 36.276m-14.2-35.332c-.422.276-.185.317.8.136 1.725-.317 2.051-.544.767-.536-.532.003-1.237.183-1.567.4m-7.8.813c-.558.252-.315.288.8.119.88-.134 1.675-.31 1.767-.391.343-.303-1.799-.076-2.567.272m-7.8.776c-.409.26-.09.304 1 .137 1.977-.303 2.314-.534.767-.526-.642.003-1.437.178-1.767.389m-7.6.811c-.422.276-.185.317.8.136 1.725-.317 2.051-.544.767-.536-.532.003-1.237.183-1.567.4m-1.816.894c-.105.275-.144 14.81-.087 32.3l.103 31.8.2-32.3c.11-17.765.149-32.3.087-32.3-.061 0-.198.225-.303.5m.568 64.812c.193.193.867.286 1.499.207 1.058-.132 1.03-.16-.351-.351-.86-.119-1.35-.058-1.148.144m6.848.693c.33.211 1.125.386 1.767.389 1.547.008 1.21-.223-.767-.526-1.09-.167-1.409-.123-1 .137m7.221.816c.534.339 3.521.56 3.146.234-.092-.08-.968-.247-1.946-.373-1.151-.147-1.575-.098-1.2.139m7.379.769c.764.338 3.314.567 2.967.266-.092-.08-.977-.252-1.967-.383-1.202-.159-1.534-.12-1 .117m7.421.831c.534.339 3.521.56 3.146.234-.092-.08-.968-.247-1.946-.373-1.151-.147-1.575-.098-1.2.139M172 240.675c0 .653 2.339 2.528 3.131 2.509.368-.008.107-.26-.58-.559-.686-.299-1.541-.962-1.9-1.473-.358-.512-.651-.726-.651-.477m-1.2 1.284c0 .372 2.354 2.64 2.503 2.412.061-.094-.477-.741-1.196-1.437-.719-.696-1.307-1.135-1.307-.975m7.8 1.622c.768.348 2.91.575 2.567.272-.092-.081-.887-.257-1.767-.391-1.115-.169-1.358-.133-.8.119m-3.859 1.32c.202.202.792.3 1.313.218.801-.126.744-.182-.367-.367-.794-.131-1.168-.073-.946.149m10.959-.225c.385.1 1.015.1 1.4 0 .385-.101.07-.183-.7-.183s-1.085.082-.7.183m-5.359 1.025c.202.202.792.3 1.313.218.801-.126.744-.182-.367-.367-.794-.131-1.168-.073-.946.149m27.921 3.999c.102.165.524.3.938.3.414 0 .836-.135.938-.3.102-.165-.32-.3-.938-.3-.618 0-1.04.135-.938.3m-70.672 31.363c.593.294.517 5.464-.09 6.107-.404.428-.384.495.1.347.8-.245.884-6.393.09-6.554-.28-.057-.326-.011-.1.1m33.392.24c-.106.277-.146 6.352-.087 13.5l.106 12.997.199-13.5c.11-7.425.149-13.5.087-13.5-.061 0-.199.226-.305.503M197.6 294.32l.199 13.48.106-13.174c.058-7.246-.031-13.313-.199-13.481-.168-.168-.216 5.76-.106 13.175m127.196-10.402.196 3.082.124-2.76c.068-1.519-.021-2.905-.196-3.082-.176-.177-.232 1.065-.124 2.76M110 294.48c-.11 7.195-.062 12.943.106 12.775.168-.169.258-6.055.199-13.081l-.106-12.774-.199 13.08m32.493-11.68c0 .77.082 1.085.183.7.1-.385.1-1.015 0-1.4-.101-.385-.183-.07-.183.7m24.016.4c0 .99.078 1.395.173.9a5.661 5.661 0 0 0 0-1.8c-.095-.495-.173-.09-.173.9m94.015.6c.002 1.32.077 1.812.166 1.093.089-.719.087-1.799-.004-2.4s-.164-.013-.162 1.307M99.4 286.4c-.341.66-.531 1.2-.421 1.2.11 0 .48-.54.821-1.2.341-.66.531-1.2.421-1.2-.11 0-.48.54-.821 1.2m103.572 7.8c0 5.06.057 7.075.127 4.477.07-2.597.069-6.737-.001-9.2-.07-2.462-.127-.337-.126 4.723m67.195 0c0 4.18.059 5.836.131 3.679.073-2.156.072-5.576 0-7.6-.073-2.023-.132-.259-.131 3.921m-7.601.2c0 4.07.059 5.735.132 3.7.073-2.035.073-5.365 0-7.4s-.132-.37-.132 3.7m-139.652-5c.003 1.1.081 1.503.173.895.092-.609.09-1.509-.005-2-.095-.492-.171.005-.168 1.105m-27.302 1.251c-.029 1.078 1.121 1.423 1.582.475.414-.851.403-.867-.136-.198-.568.704-.601.704-1.01 0-.233-.4-.429-.525-.436-.277m6.788 3.88c-.11.11-.11 3.14 0 6.734l.2 6.535 3.4.027 3.4.028-3.29-.144-3.291-.143-.109-6.618c-.061-3.64-.2-6.528-.31-6.419m76.088 6.369.089 6.5.122-5.917c.085-4.083.256-5.835.552-5.652.286.177.278-.016-.025-.583-.775-1.447-.829-1.035-.738 5.652m-87.61-.08.079 6.18.221-5.8c.122-3.19.087-5.971-.078-6.18-.165-.209-.265 2.401-.222 5.8m98.696-5.172c-.303.566-.311.76-.025.584.295-.183.467 1.513.552 5.451l.123 5.717.088-6.3c.091-6.487.035-6.896-.738-5.452m65.455.39c.644.791 1.252 1.37 1.35 1.287.099-.083-.428-.73-1.17-1.438l-1.351-1.287 1.171 1.438m-132.07 1.724c-.118.309-.158 1.164-.087 1.9L123 301l7.4.2 7.4.2v3.101c0 1.705.135 3.1.3 3.1.508-.001.343-5.798-.18-6.321-.337-.337-2.596-.48-7.6-.48h-7.12v-3.179l6.1-.122 6.1-.121-6.113-.089c-4.94-.072-6.153.019-6.328.473m118.957-.265c1.383.078 3.543.077 4.8-.002 1.256-.079.124-.143-2.516-.142-2.64 0-3.668.065-2.284.144m70.803.001c1.825.074 4.705.074 6.4-.001 1.695-.075.201-.136-3.319-.135-3.52 0-4.906.062-3.081.136M212.7 301.095c1.155.081 3.045.081 4.2 0 1.155-.081.21-.147-2.1-.147s-3.255.066-2.1.147m29.216.002c1.383.078 3.543.077 4.8-.002 1.256-.079.124-.143-2.516-.142-2.64 0-3.668.065-2.284.144m46.204.001c1.935.074 4.995.073 6.8-.001 1.804-.074.22-.134-3.52-.133-3.74 0-5.216.061-3.28.134m29.08.088 7.4.214.228 3 .228 3 .072-2.82c.1-3.918.37-3.795-8.108-3.694l-7.22.087 7.4.213m-19.063 3.414c.002 1.76.072 2.43.156 1.489.085-.94.084-2.38-.002-3.2-.086-.819-.155-.049-.154 1.711M95.7 302.276c.385.1 1.015.1 1.4 0 .385-.101.07-.183-.7-.183s-1.085.082-.7.183m164.824 2.324c.002 1.32.077 1.812.166 1.093.089-.719.087-1.799-.004-2.4s-.164-.013-.162 1.307m-55.338 1.1 2.187 2.3 7.613-.091 7.614-.09-7.597-.119-7.596-.118-2.204-2.091L203 303.4l2.186 2.3m19.399 0-1.985 2.1 2.1-1.985c1.155-1.092 2.1-2.037 2.1-2.1 0-.298-.371.034-2.215 1.985M278 305c.746.77 1.447 1.4 1.557 1.4.11 0-.411-.63-1.157-1.4-.746-.77-1.447-1.4-1.557-1.4-.11 0 .411.63 1.157 1.4m-160.615.9 1.985 2.1 9.015-.092 9.015-.092-8.994-.116-8.995-.116-2.005-1.892-2.006-1.892 1.985 2.1m49.124-.3c0 .99.078 1.395.173.9a5.661 5.661 0 0 0 0-1.8c-.095-.495-.173-.09-.173.9m-24.008.2c.004.88.086 1.193.182.695.096-.497.092-1.217-.008-1.6-.1-.382-.179.025-.174.905m-58.945 1.918c.176.175 1.743.263 3.482.197l3.162-.122-3.482-.196c-1.915-.109-3.338-.054-3.162.121m148.791-.011c.169.169 4.705.259 10.08.2l9.773-.108-10.081-.2c-5.544-.109-9.942-.061-9.772.108m-87.847.184c.825.087 2.175.087 3 0 .825-.086.15-.157-1.5-.157s-2.325.071-1.5.157m17.2 0c.825.087 2.175.087 3 0 .825-.086.15-.157-1.5-.157s-2.325.071-1.5.157m11.4.002c.935.084 2.465.084 3.4 0s.17-.153-1.7-.153c-1.87 0-2.635.069-1.7.153m19.611 0c.94.085 2.38.084 3.2-.002.819-.086.049-.155-1.711-.154-1.76.002-2.43.072-1.489.156m70.989.004c1.485.077 3.915.077 5.4 0 1.485-.077.27-.14-2.7-.14s-4.185.063-2.7.14m21.2.001c2.365.071 6.235.071 8.6 0 2.365-.07.43-.128-4.3-.128-4.73 0-6.665.058-4.3.128m26.023.001c2.597.07 6.737.069 9.2-.001 2.462-.07.337-.127-4.723-.126-5.06 0-7.075.057-4.477.127M15.6 316c0 .44.186.8.413.8.227 0 .592.405.811.9.386.871.392.867.193-.1-.113-.55-.209-1.315-.212-1.7-.003-.385-.275-.7-.605-.7-.333 0-.6.356-.6.8m376.667-.533c-.147.146-.253.641-.235 1.1.017.458.122.607.234.331.111-.277.367-.401.568-.277.201.124.366-.144.366-.597 0-.818-.421-1.069-.933-.557m-375.867 5.4c0 .256.118.348.263.203.145-.145.509-.059.809.19.432.358.493.315.294-.203-.287-.748-1.366-.898-1.366-.19m.8 2.333c0 .22.27.4.6.4.33 0 .6-.18.6-.4 0-.22-.27-.4-.6-.4-.33 0-.6.18-.6.4m5.452 7.785c.821.982 1.775 1.891 2.12 2.022.345.13-.265-.673-1.357-1.785-2.451-2.497-2.722-2.581-.763-.237m361.974 1.016c-1.525 1.539-2.988 2.799-3.251 2.799-.262 0-.717.289-1.01.642-.292.353-.945.798-1.449.99-.504.191-.902.578-.884.858.024.401.074.403.233.01.111-.275.547-.5.968-.5.422 0 .767-.184.767-.409 0-.224.495-.629 1.1-.9.605-.27 1.521-.986 2.036-1.591.514-.605 1.189-1.1 1.5-1.1.31 0 .564-.167.564-.371 0-.205.225-.615.5-.913 2.98-3.225 2.295-2.915-1.074.485M28.114 335.72c.487.506.96.867 1.05.803.234-.168-1.222-1.723-1.612-1.723-.178 0 .075.414.562.92m3.369 2.276c.114.437.388.684.607.548.22-.135.55-.004.733.293.183.297.476.398.649.224.174-.174-.131-.659-.678-1.079-1.272-.978-1.569-.974-1.311.014m344.525.228c-.545.537-.77.976-.5.976.271 0 .492-.18.492-.4 0-.22.36-.4.8-.4.444 0 .8-.267.8-.6 0-.832-.433-.716-1.592.424M36.989 341.1c.064.385.347.645.627.579.281-.067.652.108.826.388.173.281.457.368.63.194.174-.174-.131-.659-.678-1.079-1.241-.954-1.555-.972-1.405-.082m333.419.324c-.545.537-.77.976-.5.976.271 0 .492-.18.492-.4 0-.22.36-.4.8-.4.444 0 .8-.267.8-.6 0-.832-.433-.716-1.592.424m-4.508 2.454c-.825.567-1.486 1.231-1.468 1.476.019.271.11.25.233-.054.111-.275.465-.5.787-.5.321 0 1.034-.45 1.584-1 1.276-1.275.786-1.242-1.136.078m-323.367.322c0 .33.315.6.7.6.385 0 .791.225.902.5.147.365.21.35.233-.056.029-.508-1.044-1.601-1.601-1.631-.129-.007-.234.257-.234.587m318.323 2.613c-.52.433-1.195.787-1.5.787-.306 0-.542.315-.524.7.018.418.112.499.233.2.111-.275.547-.5.968-.5.422 0 .767-.199.767-.443 0-.243.279-.335.621-.204.39.149.52.074.349-.202-.15-.242-.024-.598.279-.79.303-.192.371-.346.151-.342-.22.004-.825.362-1.344.794m-312.723.587c0 .33.33.6.734.6.403 0 .733.21.733.467 0 .256.119.347.264.202.272-.272-.975-1.869-1.459-1.869-.15 0-.272.27-.272.6M356 349.554c0 .195-.63.654-1.4 1.019-.77.366-1.386.881-1.368 1.146.023.355.084.35.233-.019.111-.275.547-.5.968-.5.422 0 .767-.18.767-.4 0-.22.36-.4.8-.4.444 0 .8-.267.8-.6 0-.33-.18-.6-.4-.6-.22 0-.4.159-.4.354m-302.157.736c-.478.479-.23.91.524.91.421 0 .857.225.968.5.137.34.212.307.233-.104.035-.661-1.334-1.697-1.725-1.306m4.721 3.11c.55.55 1.263 1 1.584 1 .322 0 .676.225.787.5.127.314.214.254.233-.161.019-.39-.46-.832-1.168-1.079-.66-.23-1.2-.608-1.2-.839 0-.232-.278-.421-.618-.421-.456 0-.356.263.382 1m291.213-.033c-.427.312-.641.702-.476.867.164.165.299.089.299-.167 0-.257.36-.467.8-.467.44 0 .8-.18.8-.4 0-.559-.512-.499-1.423.167m-4.577 2.491c-.77.545-1.431 1.164-1.47 1.376-.038.212.022.202.133-.024.112-.225.467-.41.789-.41.321 0 1.034-.45 1.584-1 1.258-1.258.788-1.232-1.036.058m-282.582.57c.126.205.789.372 1.472.372 1.539 0 1.26-.368-.442-.584-.713-.09-1.16.002-1.03.212m276.982 2.667c-.77.524-1.474 1.164-1.564 1.422-.091.258.149.155.532-.228s.862-.594 1.064-.469c.203.125.368.049.368-.169 0-.217.355-.453.79-.523.461-.075.669-.307.5-.557-.192-.283-.766-.105-1.69.524M73.2 361.8c0 .33.292.6.649.6.531 0 .559-.109.151-.6-.274-.33-.566-.6-.649-.6-.083 0-.151.27-.151.6m261.377.367c-.427.312-.641.702-.476.867.164.165.299.089.299-.167 0-.257.36-.467.8-.467.44 0 .8-.18.8-.4 0-.559-.512-.499-1.423.167M78.8 365.2c0 .22.405.397.9.394.728-.005.785-.08.3-.394-.776-.501-1.2-.501-1.2 0m250.2 0c-.709.305-.675.347.3.372.605.015 1.1-.152 1.1-.372 0-.469-.307-.469-1.4 0m-244.6 3.2c0 .22.405.397.9.394.728-.005.785-.08.3-.394-.776-.501-1.2-.501-1.2 0m5.6 3.213c0 .213.345.387.767.387.421 0 .858.185.97.41.112.226.162.198.112-.062-.113-.588-1.849-1.279-1.849-.735M314 374c-.485.314-.428.389.3.394.495.003.9-.174.9-.394 0-.501-.424-.501-1.2 0m-214.4 3.2c0 .22.36.4.8.4.44 0 .8.21.8.467 0 .256.135.332.299.167.165-.165-.049-.555-.476-.867-.911-.666-1.423-.726-1.423-.167m5.6 3.2c0 .22.36.4.8.4.44 0 .8.21.8.467 0 .256.135.332.299.167.165-.165-.049-.555-.476-.867-.911-.666-1.423-.726-1.423-.167m193.021 2.535c-.402.294-.631.789-.508 1.1.165.416.232.381.255-.135.019-.423.349-.7.832-.7.44 0 .8-.18.8-.4 0-.551-.509-.501-1.379.135m-187.421.84c0 .344.286.475.764.35.48-.125.836.04.959.446.173.57.189.568.136-.018-.075-.841-1.859-1.587-1.859-.778m3.838 2.47c-.181.471-.076.579.39.4.351-.135.723-.245.828-.245.105 0 .08-.18-.056-.4-.367-.594-.882-.485-1.162.245m177.983-.11c-.402.294-.631.789-.508 1.1.157.397.233.343.255-.182.024-.568.263-.702.995-.562.691.132.905.032.758-.353-.26-.676-.578-.677-1.5-.003m-175.121.93c.275.111.5.457.5.768 0 .312.186.567.414.567.281 0 .276-.258-.014-.8-.235-.44-.647-.786-.914-.768-.366.023-.363.081.014.233m171.526 1.293c-.241.391.957.992 1.298.651.115-.115-.011-.209-.281-.209s-.379-.18-.243-.4c.136-.22.067-.4-.153-.4s-.499.161-.621.358M120.4 389.363c0 .365.28.489.8.353.583-.153.809-.007.832.537.022.525.098.579.255.182.123-.311-.106-.806-.508-1.1-.94-.687-1.379-.678-1.379.028m166.9-.129c-.504.19-.88.654-.854 1.053.044.672.058.671.234-.011.15-.579.442-.675 1.454-.476.696.137 1.086.101.866-.08a5.142 5.142 0 0 1-.6-.578c-.11-.137-.605-.096-1.1.092m-3.874 2.324c-.122.197.048.461.376.588.363.139.598-.002.598-.359 0-.647-.625-.794-.974-.229M126 392.627c0 .445.232.553.8.373.583-.185.8-.072.8.416 0 .461.208.59.668.413.367-.141.831-.025 1.03.257.277.392.324.372.199-.086-.09-.33-.419-.6-.73-.6-.312 0-.882-.315-1.267-.7-.868-.868-1.5-.899-1.5-.073m151.421 2.308c-.402.294-.631.789-.508 1.1.165.416.232.381.255-.135.019-.423.349-.7.832-.7.44 0 .8-.18.8-.4 0-.551-.509-.501-1.379.135m-145.821.89c0 .332.245.456.619.312.355-.136.877.084 1.222.513.574.714.584.71.194-.1-.484-1.004-2.035-1.557-2.035-.725m3.458 1.675c.745 1.356 1.124 1.576 1.544.897.137-.221-.078-.525-.477-.675-.399-.15-.963-.554-1.253-.897-.291-.344-.207-.04.186.675m137.042.512c-.495.199-.9.559-.9.799s-.207.308-.461.151c-.253-.156-.658-.021-.9.302-.241.322-.799.73-1.239.907-.605.244-.661.373-.23.532.314.116.883-.175 1.265-.647.422-.521.944-.762 1.33-.614.424.163.635.021.635-.426 0-.488.217-.601.8-.416.568.18.8.072.8-.373 0-.345-.045-.616-.1-.602-.055.014-.505.188-1 .387m-130.9 3.415c0 .445.232.553.8.373.505-.16.8-.072.8.24 0 .271.135.359.299.194.165-.165-.049-.555-.476-.867-1.005-.735-1.423-.717-1.423.06m125.426-.269c-.122.197.048.461.376.588.363.139.598-.002.598-.359 0-.647-.625-.794-.974-.229m-1.026.866c0 .233-.207.295-.461.138-.253-.156-.658-.021-.9.302-.241.322-.78.714-1.196.87-1.012.38-.641.695.474.403.486-.126.883-.491.883-.811 0-.398.251-.5.8-.326.568.18.8.072.8-.373 0-.345-.09-.627-.2-.627-.11 0-.2.191-.2.424m-121.208.676c.24.495.745.903 1.122.906.589.005.601.061.086.394-.361.233-.41.39-.124.394.823.01 1.009-.787.249-1.072-.399-.15-.96-.554-1.247-.897-.441-.528-.455-.486-.086.275m2.408 1.94c0 .423.238.538.767.37.502-.159.834-.027.96.381.159.517.181.511.132-.038-.08-.893-1.859-1.576-1.859-.713m114.156-.248c-.882.356-1.616 1.608-.943 1.608.213 0 .387-.282.387-.627 0-.445.232-.553.8-.373.568.18.8.072.8-.373 0-.345-.045-.616-.1-.602-.055.014-.48.179-.944.367m-2.436 1.338c-.176.292-.632.645-1.013.785-.451.165-.603.49-.436.926.274.715.769.284 1.772-1.541.446-.81.155-.962-.323-.17M150.933 407c0 .342.164.568.364.501a.567.567 0 0 0 .363-.501.567.567 0 0 0-.363-.501c-.2-.067-.364.159-.364.501m1.499.727c-.024.55.163.665.768.473.568-.18.8-.072.8.373 0 .345.186.627.414.627.276 0 .265-.278-.031-.831-.244-.457-.689-.737-.988-.622-.299.114-.631-.007-.738-.269-.106-.263-.208-.151-.225.249m103.568-.14c0 .214-.256.29-.569.169-.326-.125-.76.137-1.014.613-.296.553-.307.831-.031.831.228 0 .414-.282.414-.627 0-.445.232-.553.8-.373.568.18.8.072.8-.373 0-.345-.09-.627-.2-.627-.11 0-.2.174-.2.387m-99.762 2.657c-.2.522-.056.597.757.393.784-.197 1.012-.097 1.037.455.023.518.091.556.255.143.123-.311-.106-.806-.508-1.1-.951-.695-1.24-.675-1.541.109m95.24-.388c-.32.319.041.944.546.944.207 0 .376-.27.376-.6 0-.619-.472-.795-.922-.344M162 413.4c0 .367.194.602.43.523.237-.078.43-.314.43-.523 0-.209-.193-.445-.43-.523-.236-.079-.43.156-.43.523m83.878-.344c-.32.319.041.944.546.944.207 0 .376-.27.376-.6 0-.619-.472-.795-.922-.344m-80.646 1.657c-.018.281.237.615.566.741.328.127.483.414.344.64-.139.225-.015.33.277.233.874-.291.909-1.127.048-1.127-.44 0-.891-.225-1.002-.5-.158-.392-.209-.389-.233.013m78-.06c-.018.25-.434.559-.925.687-.681.178-.782.345-.426.701.572.572 1.901-.557 1.583-1.345-.13-.32-.212-.335-.232-.043M167.7 416.5c.08.24.532.466 1.004.5 1.047.077.825-.421-.321-.72-.501-.131-.771-.044-.683.22m3.106 1.311c-.009.641 1.533 1.811 1.805 1.37.132-.212-.087-.507-.486-.655-.399-.147-.857-.461-1.019-.697-.19-.277-.296-.284-.3-.018m66.794.142c0 .195-.402.459-.893.587-.706.185-.79.337-.402.725.389.389.615.329 1.081-.286.599-.793.775-1.379.414-1.379-.11 0-.2.159-.2.353m-3.855 2.247c-.127.33-.571.6-.988.6-.416 0-.757.163-.757.363 0 .62 1.604-.023 2.027-.813.221-.412.299-.75.175-.75-.125 0-.331.27-.457.6m-56.412 2c0 .342.164.568.364.501a.565.565 0 0 0 .363-.501.565.565 0 0 0-.363-.501c-.2-.067-.364.159-.364.501m53.345-.344c-.32.319.041.944.546.944.207 0 .376-.27.376-.6 0-.619-.472-.795-.922-.344M228 423.487c0 .231-.378.519-.84.639-.462.121-.723.41-.579.643.166.269.57.135 1.111-.369.467-.435.728-.913.579-1.062-.149-.149-.271-.082-.271.149m-5.6 3.266c0 .195-.378.453-.84.573-.515.135-.728.402-.55.69.196.317.374.334.549.05.143-.23.795-.699 1.45-1.04 1.071-.559 1.1-.621.291-.624-.495-.001-.9.157-.9.351m-35.41 1.095c.357.356.748.548.869.426.356-.356-.253-1.074-.911-1.074-.523 0-.517.088.042.648m4.717 2.492c.828.393 1.383.836 1.233.987-.15.15.217.273.817.273.625 0 .985.171.843.4-.136.22-.057.4.176.4.233 0 .424-.27.424-.6 0-.333-.356-.6-.8-.6-.44 0-.8-.18-.8-.4 0-.22-.36-.4-.8-.4-.44 0-.8-.18-.8-.4 0-.22-.405-.394-.9-.386-.717.01-.593.158.607.726m25.093-.387c0 .195-.36.448-.8.563-.812.212-1.133 1.084-.4 1.084.22 0 .4-.18.4-.4 0-.22.283-.4.629-.4.345 0 .898-.27 1.228-.6.533-.533.508-.6-.228-.6-.456 0-.829.159-.829.353m-2.933 1.514c-.383.382-.329.933.09.933.197 0 .461-.27.588-.6.234-.61-.192-.819-.678-.333m-12.524 1.933c.33.33.793.6 1.028.6.236 0 .429-.27.429-.6 0-.378-.381-.6-1.029-.6-.914 0-.961.067-.428.6m4.924-.333c-.409.408-.318.933.162.933.235 0 .698-.27 1.028-.6.533-.533.515-.6-.162-.6-.419 0-.882.12-1.028.267" fill="#2b5170"/>
    <path d="M221.6 12.241c0 .372 1.582.912 1.771.606.121-.196-.228-.441-.776-.546-.547-.104-.995-.131-.995-.06m-60.8 14.93c0 .204-.315.453-.7.553-.527.138-.477.195.2.23.554.028.9-.185.9-.554 0-.33-.09-.6-.2-.6-.11 0-.2.167-.2.371m86.8.229c0 .33.292.6.649.6.531 0 .559-.109.151-.6-.274-.33-.566-.6-.649-.6-.083 0-.151.27-.151.6M23.637 107.073c-1.144 1.1-.644 1.222.717.175.525-.403.795-.816.6-.918-.195-.101-.788.233-1.317.743M216.593 201.8c0 23.1.048 32.491.107 20.869a4983.04 4983.04 0 0 0 0-42c-.059-11.478-.107-1.969-.107 21.131m-101.218 90.6c0 5.83.056 8.215.124 5.3s.068-7.685 0-10.6-.124-.53-.124 5.3m186.799-.2c.001 5.72.057 8.004.125 5.076.069-2.928.068-7.608 0-10.4-.069-2.792-.125-.396-.125 5.324m-46.043-3.6c.002 1.54.074 2.121.161 1.291.087-.83.085-2.09-.003-2.8-.089-.71-.16-.031-.158 1.509m-45.568 5.8c0 3.63.06 5.115.135 3.3a98.136 98.136 0 0 0 0-6.6c-.075-1.815-.135-.33-.135 3.3m112.365 0c0 1.43.073 2.015.161 1.3.089-.715.089-1.885 0-2.6-.088-.715-.161-.13-.161 1.3m-66.797 5.8c.002 1.54.074 2.121.161 1.291.087-.83.085-2.09-.003-2.8-.089-.71-.16-.031-.158 1.509" fill="#3c5c7c"/>
    <path d="M237.854 21.798c.127.328.391.498.588.376.565-.349.418-.974-.229-.974-.357 0-.498.235-.359.598M24.8 106c0 .501.424.501 1.2 0 .485-.314.428-.389-.3-.394-.495-.003-.9.174-.9.394m359.718 1.047c.395.414.997 1.113 1.336 1.553.374.485.326.261-.122-.568-.407-.752-1.008-1.451-1.336-1.552-.448-.139-.417.002.122.567M226.493 163.2c0 .77.082 1.085.183.7.1-.385.1-1.015 0-1.4-.101-.385-.183-.07-.183.7m45.631 120.6c.002 1.32.077 1.812.166 1.093.089-.719.087-1.799-.004-2.4s-.164-.013-.162 1.307M83.378 294.4c0 6.93.055 9.765.121 6.3a394.95 394.95 0 0 0 0-12.6c-.066-3.465-.121-.63-.121 6.3m200.794-2.8c0 5.17.057 7.285.127 4.7.069-2.585.069-6.815 0-9.4-.07-2.585-.127-.47-.127 4.7m-157.692-4.102c1.914.073 5.154.073 7.2 0 2.046-.072.48-.132-3.48-.133-3.96 0-5.634.059-3.72.133m84.18.002c-.102.165 1.102.251 2.677.191 5.145-.197 5.739-.355 1.587-.424-2.242-.037-4.161.068-4.264.233m31.256-.003c1.383.078 3.543.077 4.8-.002 1.256-.079.124-.143-2.516-.142-2.64 0-3.668.065-2.284.144m71.364.001c1.914.073 5.154.073 7.2 0 2.046-.072.48-.132-3.48-.133-3.96 0-5.634.059-3.72.133M122.514 289.4c.003 1.1.081 1.503.173.895.092-.609.09-1.509-.005-2-.095-.492-.171.005-.168 1.105m-.082 9.676c-.018.922.11 1.765.284 1.872.174.108.251-.466.171-1.276-.218-2.214-.42-2.477-.455-.596M272.12 304.8c0 1.21.075 1.705.167 1.1a8.899 8.899 0 0 0 0-2.2c-.092-.605-.167-.11-.167 1.1m116.694 22.774c-.518.967-.521 1.226-.014 1.226.22 0 .4-.345.4-.767 0-.421.225-.857.5-.968.377-.152.38-.21.014-.233-.267-.018-.672.316-.9.742M23.8 333.2c.136.22.517.4.847.4.33 0 .489-.18.353-.4-.136-.22-.517-.4-.847-.4-.33 0-.489.18-.353.4m272.1 51.678c-.729.752-.576.855.585.394.377-.15.557-.462.4-.694-.185-.274-.53-.169-.985.3" fill="#3c647c"/>
  </g>
</svg>